SplineFontDB: 3.2
FontName: FranchiseFree-Bold
FullName: Franchise Free Bold
FamilyName: Franchise Free
Weight: Bold
Version: 1.000
ItalicAngle: 0
UnderlinePosition: -112
UnderlineWidth: 61
Ascent: 800
Descent: 200
InvalidEm: 0
sfntRevision: 0x00010000
LayerCount: 2
Layer: 0 1 "Back" 1
Layer: 1 1 "Fore" 0
XUID: [1021 736 -1704445808 7204]
StyleMap: 0x0040
FSType: 4
OS2Version: 3
OS2_WeightWidthSlopeOnly: 0
OS2_UseTypoMetrics: 0
CreationTime: -804605431
ModificationTime: 1660661533
PfmFamily: 81
TTFWeight: 700
TTFWidth: 5
LineGap: 27
VLineGap: 0
Panose: 0 0 0 0 0 0 0 0 0 0
OS2TypoAscent: 858
OS2TypoAOffset: 0
OS2TypoDescent: -238
OS2TypoDOffset: 0
OS2TypoLinegap: 52
OS2WinAscent: 816
OS2WinAOffset: 0
OS2WinDescent: 116
OS2WinDOffset: 0
HheadAscent: 816
HheadAOffset: 0
HheadDescent: -116
HheadDOffset: 0
OS2SubXSize: 700
OS2SubYSize: 650
OS2SubXOff: 0
OS2SubYOff: 140
OS2SupXSize: 700
OS2SupYSize: 650
OS2SupXOff: 0
OS2SupYOff: 477
OS2StrikeYSize: 50
OS2StrikeYPos: 250
OS2CapHeight: 700
OS2XHeight: 600
OS2Vendor: 'pyrs'
OS2CodePages: 00000001.00000000
OS2UnicodeRanges: 80000003.00000048.00000000.00000000
Lookup: 258 0 0 "'kern' Horizontal Kerning lookup 0" { "'kern' Horizontal Kerning lookup 0 subtable"  } ['kern' ('DFLT' <'dflt' > ) ]
DEI: 91125
TtTable: prep
PUSHW_1
 0
CALL
SVTCA[y-axis]
PUSHW_3
 1
 3
 2
CALL
SVTCA[x-axis]
PUSHW_3
 4
 5
 2
CALL
SVTCA[x-axis]
PUSHW_8
 4
 48
 38
 30
 22
 13
 0
 8
CALL
PUSHW_8
 5
 72
 59
 46
 33
 20
 0
 8
CALL
PUSHW_8
 6
 43
 38
 30
 22
 13
 0
 8
CALL
PUSHW_8
 7
 24
 19
 15
 11
 7
 0
 8
CALL
PUSHW_8
 8
 23
 19
 15
 11
 7
 0
 8
CALL
SVTCA[y-axis]
PUSHW_8
 1
 48
 38
 30
 22
 13
 0
 8
CALL
PUSHW_8
 2
 53
 44
 30
 22
 13
 0
 8
CALL
PUSHW_8
 3
 43
 38
 30
 22
 13
 0
 8
CALL
SVTCA[y-axis]
PUSHW_3
 9
 4
 7
CALL
PUSHW_1
 0
DUP
RCVT
RDTG
ROUND[Black]
RTG
WCVTP
EndTTInstrs
TtTable: fpgm
PUSHW_1
 0
FDEF
MPPEM
PUSHW_1
 9
LT
IF
PUSHB_2
 1
 1
INSTCTRL
EIF
PUSHW_1
 511
SCANCTRL
PUSHW_1
 68
SCVTCI
PUSHW_2
 9
 3
SDS
SDB
ENDF
PUSHW_1
 1
FDEF
DUP
DUP
RCVT

StartChar: B
Encoding: 66 66 1
Width: 365
GlyphClass: 1
Flags: W
LayerCount: 2
Fore
SplineSet
307 349 m 256,0,1
 321 335 321 335 328 316 c 128,-1,2
 335 297 335 297 335 274 c 2,3,-1
 335 126 l 2,4,5
 335 100 335 100 325 77 c 128,-1,6
 315 54 315 54 298 37 c 128,-1,7
 281 20 281 20 258 10 c 128,-1,8
 235 0 235 0 209 0 c 2,9,-1
 59 0 l 2,10,11
 45 0 45 0 45 14 c 2,12,-1
 45 686 l 2,13,14
 45 700 45 700 59 700 c 2,15,-1
 209 700 l 2,16,17
 235 700 235 700 258 690 c 128,-1,18
 281 680 281 680 298 663 c 128,-1,19
 315 646 315 646 325 623 c 128,-1,20
 335 600 335 600 335 574 c 2,21,-1
 335 474 l 2,22,23
 335 428 335 428 307 397 c 0,24,25
 292 381 292 381 271 371 c 1,26,27
 293 363 293 363 307 349 c 256,0,1
218 290 m 2,28,29
 218 300 218 300 211 307 c 128,-1,30
 204 314 204 314 194 314 c 2,31,-1
 162 314 l 1,32,-1
 162 107 l 1,33,-1
 194 107 l 2,34,35
 204 107 204 107 211 114 c 128,-1,36
 218 121 218 121 218 131 c 2,37,-1
 218 290 l 2,28,29
218 569 m 2,38,39
 218 579 218 579 211 586 c 128,-1,40
 204 593 204 593 194 593 c 2,41,-1
 162 593 l 1,42,-1
 162 423 l 1,43,-1
 194 423 l 2,44,45
 204 423 204 423 211 430 c 128,-1,46
 218 437 218 437 218 447 c 2,47,-1
 218 569 l 2,38,39
EndSplineSet
Validated: 1
EndChar

StartChar: C
Encoding: 67 67 2
Width: 355
GlyphClass: 1
Flags: W
LayerCount: 2
Fore
SplineSet
199 707 m 1,0,1
 225 707 225 707 248 697 c 128,-1,2
 271 687 271 687 288 670 c 128,-1,3
 305 653 305 653 315 630 c 128,-1,4
 325 607 325 607 325 581 c 2,5,-1
 325 501 l 2,6,7
 325 487 325 487 312 483 c 2,8,-1
 221 469 l 2,9,10
 208 465 208 465 208 479 c 2,11,-1
 208 576 l 2,12,13
 208 586 208 586 201 593 c 128,-1,14
 194 600 194 600 184 600 c 2,15,-1
 176 600 l 2,16,17
 166 600 166 600 159 593 c 128,-1,18
 152 586 152 586 152 576 c 2,19,-1
 152 124 l 2,20,21
 152 114 152 114 159 107 c 128,-1,22
 166 100 166 100 176 100 c 2,23,-1
 184 100 l 2,24,25
 194 100 194 100 201 107 c 128,-1,26
 208 114 208 114 208 124 c 2,27,-1
 208 264 l 2,28,29
 208 278 208 278 221 274 c 2,30,-1
 312 262 l 2,31,32
 325 258 325 258 325 244 c 2,33,-1
 325 119 l 2,34,35
 325 93 325 93 315 70 c 128,-1,36
 305 47 305 47 288 30 c 128,-1,37
 271 13 271 13 248 3 c 128,-1,38
 225 -7 225 -7 199 -7 c 2,39,-1
 161 -7 l 2,40,41
 135 -7 135 -7 112 3 c 128,-1,42
 89 13 89 13 72 30 c 128,-1,43
 55 47 55 47 45 70 c 128,-1,44
 35 93 35 93 35 119 c 2,45,-1
 35 581 l 2,46,47
 35 607 35 607 45 630 c 128,-1,48
 55 653 55 653 72 670 c 128,-1,49
 89 687 89 687 112 697 c 128,-1,50
 135 707 135 707 161 707 c 2,51,-1
 199 707 l 1,52,-1
 199 707 l 1,0,1
EndSplineSet
Validated: 5
EndChar

StartChar: D
Encoding: 68 68 3
Width: 370
GlyphClass: 1
Flags: W
LayerCount: 2
Fore
SplineSet
209 700 m 2,0,1
 235 700 235 700 258 690 c 128,-1,2
 281 680 281 680 298 663 c 128,-1,3
 315 646 315 646 325 623 c 128,-1,4
 335 600 335 600 335 574 c 2,5,-1
 335 126 l 2,6,7
 335 100 335 100 325 77 c 128,-1,8
 315 54 315 54 298 37 c 128,-1,9
 281 20 281 20 258 10 c 128,-1,10
 235 0 235 0 209 0 c 2,11,-1
 59 0 l 2,12,13
 45 0 45 0 45 14 c 2,14,-1
 45 686 l 2,15,16
 45 700 45 700 59 700 c 2,17,-1
 209 700 l 2,0,1
218 569 m 2,18,19
 218 579 218 579 211 586 c 128,-1,20
 204 593 204 593 194 593 c 2,21,-1
 162 593 l 1,22,-1
 162 107 l 1,23,-1
 194 107 l 2,24,25
 204 107 204 107 211 114 c 128,-1,26
 218 121 218 121 218 131 c 2,27,-1
 218 569 l 2,18,19
EndSplineSet
Validated: 1
EndChar

StartChar: E
Encoding: 69 69 4
Width: 330
GlyphClass: 1
Flags: W
LayerCount: 2
Fore
SplineSet
276 117 m 1,0,1
 290 117 290 117 290 103 c 2,2,-1
 290 14 l 2,3,4
 290 0 290 0 276 0 c 2,5,-1
 59 0 l 2,6,7
 45 0 45 0 45 14 c 2,8,-1
 45 686 l 2,9,10
 45 700 45 700 59 700 c 2,11,-1
 276 700 l 2,12,13
 290 700 290 700 290 686 c 2,14,-1
 290 597 l 2,15,16
 290 583 290 583 276 583 c 2,17,-1
 162 583 l 1,18,-1
 162 439 l 1,19,-1
 261 439 l 2,20,21
 275 439 275 439 275 425 c 2,22,-1
 275 336 l 2,23,24
 275 322 275 322 261 322 c 2,25,-1
 162 322 l 1,26,-1
 162 117 l 1,27,-1
 276 117 l 1,28,-1
 276 117 l 1,0,1
EndSplineSet
Validated: 5
EndChar

StartChar: F
Encoding: 70 70 5
Width: 320
GlyphClass: 1
Flags: W
LayerCount: 2
Fore
SplineSet
276 700 m 1,0,1
 290 700 290 700 290 686 c 2,2,-1
 290 597 l 2,3,4
 290 583 290 583 276 583 c 2,5,-1
 162 583 l 1,6,-1
 162 439 l 1,7,-1
 261 439 l 2,8,9
 275 439 275 439 275 425 c 2,10,-1
 275 336 l 2,11,12
 275 322 275 322 261 322 c 2,13,-1
 162 322 l 1,14,-1
 162 14 l 2,15,16
 162 0 162 0 148 0 c 2,17,-1
 59 0 l 2,18,19
 45 0 45 0 45 14 c 2,20,-1
 45 686 l 2,21,22
 45 700 45 700 59 700 c 2,23,-1
 276 700 l 1,24,-1
 276 700 l 1,0,1
EndSplineSet
Validated: 5
EndChar

StartChar: G
Encoding: 71 71 6
Width: 360
GlyphClass: 1
Flags: W
LayerCount: 2
Fore
SplineSet
199 707 m 1,0,1
 225 707 225 707 248 697 c 128,-1,2
 271 687 271 687 288 670 c 128,-1,3
 305 653 305 653 315 630 c 128,-1,4
 325 607 325 607 325 581 c 2,5,-1
 325 549 l 2,6,7
 325 535 325 535 312 531 c 2,8,-1
 221 498 l 2,9,10
 208 494 208 494 208 508 c 2,11,-1
 208 576 l 2,12,13
 208 586 208 586 201 593 c 128,-1,14
 194 600 194 600 184 600 c 2,15,-1
 176 600 l 2,16,17
 166 600 166 600 159 593 c 128,-1,18
 152 586 152 586 152 576 c 2,19,-1
 152 124 l 2,20,21
 152 114 152 114 159 107 c 128,-1,22
 166 100 166 100 176 100 c 2,23,-1
 184 100 l 2,24,25
 194 100 194 100 201 107 c 128,-1,26
 208 114 208 114 208 124 c 2,27,-1
 208 302 l 1,28,-1
 180 302 l 1,29,-1
 180 416 l 1,30,-1
 311 416 l 2,31,32
 325 416 325 416 325 402 c 2,33,-1
 325 119 l 2,34,35
 325 93 325 93 315 70 c 128,-1,36
 305 47 305 47 288 30 c 128,-1,37
 271 13 271 13 248 3 c 128,-1,38
 225 -7 225 -7 199 -7 c 2,39,-1
 161 -7 l 2,40,41
 135 -7 135 -7 112 3 c 128,-1,42
 89 13 89 13 72 30 c 128,-1,43
 55 47 55 47 45 70 c 128,-1,44
 35 93 35 93 35 119 c 2,45,-1
 35 581 l 2,46,47
 35 607 35 607 45 630 c 128,-1,48
 55 653 55 653 72 670 c 128,-1,49
 89 687 89 687 112 697 c 128,-1,50
 135 707 135 707 161 707 c 2,51,-1
 199 707 l 1,52,-1
 199 707 l 1,0,1
EndSplineSet
Validated: 5
EndChar

StartChar: H
Encoding: 72 72 7
Width: 390
GlyphClass: 1
Flags: W
LayerCount: 2
Fore
SplineSet
331 700 m 1,0,1
 345 700 345 700 345 686 c 2,2,-1
 345 14 l 2,3,4
 345 0 345 0 331 0 c 2,5,-1
 242 0 l 2,6,7
 228 0 228 0 228 14 c 2,8,-1
 228 300 l 1,9,-1
 162 300 l 1,10,-1
 162 14 l 2,11,12
 162 0 162 0 148 0 c 2,13,-1
 59 0 l 2,14,15
 45 0 45 0 45 14 c 2,16,-1
 45 686 l 2,17,18
 45 700 45 700 59 700 c 2,19,-1
 148 700 l 2,20,21
 162 700 162 700 162 686 c 2,22,-1
 162 417 l 1,23,-1
 228 417 l 1,24,-1
 228 686 l 2,25,26
 228 700 228 700 242 700 c 2,27,-1
 331 700 l 1,28,-1
 331 700 l 1,0,1
EndSplineSet
Validated: 5
EndChar

StartChar: I
Encoding: 73 73 8
Width: 207
GlyphClass: 1
Flags: W
LayerCount: 2
Fore
SplineSet
162 14 m 2,0,1
 162 0 162 0 148 0 c 2,2,-1
 59 0 l 2,3,4
 45 0 45 0 45 14 c 2,5,-1
 45 686 l 2,6,7
 45 700 45 700 59 700 c 2,8,-1
 148 700 l 2,9,10
 162 700 162 700 162 686 c 2,11,-1
 162 14 l 2,0,1
EndSplineSet
Validated: 1
EndChar

StartChar: J
Encoding: 74 74 9
Width: 355
GlyphClass: 1
Flags: W
LayerCount: 2
Fore
SplineSet
301 700 m 2,0,1
 315 700 315 700 315 686 c 2,2,-1
 315 119 l 2,3,4
 315 93 315 93 305 70 c 128,-1,5
 295 47 295 47 278 30 c 128,-1,6
 261 13 261 13 238 3 c 128,-1,7
 215 -7 215 -7 189 -7 c 2,8,-1
 151 -7 l 2,9,10
 125 -7 125 -7 102 3 c 128,-1,11
 79 13 79 13 62 30 c 128,-1,12
 45 47 45 47 35 70 c 128,-1,13
 25 93 25 93 25 119 c 2,14,-1
 25 246 l 2,15,16
 25 260 25 260 38 264 c 2,17,-1
 129 288 l 2,18,19
 142 292 142 292 142 278 c 2,20,-1
 142 124 l 2,21,22
 142 114 142 114 149 107 c 128,-1,23
 156 100 156 100 166 100 c 2,24,-1
 174 100 l 2,25,26
 184 100 184 100 191 107 c 128,-1,27
 198 114 198 114 198 124 c 2,28,-1
 198 686 l 2,29,30
 198 700 198 700 212 700 c 2,31,-1
 301 700 l 2,0,1
EndSplineSet
Validated: 1
EndChar

StartChar: K
Encoding: 75 75 10
Width: 403
GlyphClass: 1
Flags: W
LayerCount: 2
Fore
SplineSet
373 700 m 1,0,1
 379 700 379 700 381 695.5 c 128,-1,2
 383 691 383 691 381 686 c 2,3,-1
 247 391 l 1,4,-1
 379 14 l 2,5,6
 381 9 381 9 378 4.5 c 128,-1,7
 375 0 375 0 369 0 c 2,8,-1
 270 0 l 2,9,10
 264 0 264 0 259 3.5 c 128,-1,11
 254 7 254 7 252 12 c 2,12,-1
 179 238 l 1,13,-1
 162 196 l 1,14,-1
 162 14 l 2,15,16
 162 0 162 0 148 0 c 2,17,-1
 59 0 l 2,18,19
 45 0 45 0 45 14 c 2,20,-1
 45 686 l 2,21,22
 45 700 45 700 59 700 c 2,23,-1
 148 700 l 2,24,25
 162 700 162 700 162 686 c 2,26,-1
 162 471 l 1,27,-1
 254 688 l 2,28,29
 259 700 259 700 273 700 c 2,30,-1
 373 700 l 1,31,-1
 373 700 l 1,0,1
EndSplineSet
Validated: 5
EndChar

StartChar: L
Encoding: 76 76 11
Width: 330
GlyphClass: 1
Flags: W
LayerCount: 2
Fore
SplineSet
291 117 m 1,0,1
 305 117 305 117 305 103 c 2,2,-1
 305 14 l 2,3,4
 305 0 305 0 291 0 c 2,5,-1
 156 0 l 1,6,-1
 154 0 l 1,7,-1
 153 0 l 1,8,-1
 64 0 l 2,9,10
 50 0 50 0 50 14 c 2,11,-1
 50 686 l 2,12,13
 50 700 50 700 64 700 c 2,14,-1
 153 700 l 2,15,16
 167 700 167 700 167 686 c 2,17,-1
 167 117 l 1,18,-1
 291 117 l 1,19,-1
 291 117 l 1,0,1
EndSplineSet
Validated: 5
EndChar

StartChar: M
Encoding: 77 77 12
Width: 480
GlyphClass: 1
Flags: W
LayerCount: 2
Fore
SplineSet
421 700 m 1,0,1
 435 700 435 700 435 686 c 2,2,-1
 435 14 l 2,3,4
 435 0 435 0 421 0 c 2,5,-1
 325 0 l 2,6,7
 311 0 311 0 311 14 c 2,8,-1
 311 330 l 1,9,-1
 245 72 l 2,10,11
 243 67 243 67 240 67 c 128,-1,12
 237 67 237 67 235 72 c 2,13,-1
 169 330 l 1,14,-1
 169 14 l 2,15,16
 169 0 169 0 155 0 c 2,17,-1
 59 0 l 2,18,19
 45 0 45 0 45 14 c 2,20,-1
 45 686 l 2,21,22
 45 700 45 700 59 700 c 2,23,-1
 144 700 l 2,24,25
 150 700 150 700 154.5 695.5 c 128,-1,26
 159 691 159 691 161 686 c 2,27,-1
 240 328 l 1,28,-1
 319 686 l 2,29,30
 321 691 321 691 325.5 695.5 c 128,-1,31
 330 700 330 700 336 700 c 2,32,-1
 421 700 l 1,33,-1
 421 700 l 1,0,1
EndSplineSet
Validated: 5
EndChar

StartChar: N
Encoding: 78 78 13
Width: 410
GlyphClass: 1
Flags: W
LayerCount: 2
Fore
SplineSet
351 700 m 1,0,1
 365 700 365 700 365 686 c 2,2,-1
 365 14 l 2,3,4
 365 0 365 0 351 0 c 2,5,-1
 287 0 l 2,6,7
 281 0 281 0 275.5 4 c 128,-1,8
 270 8 270 8 268 13 c 2,9,-1
 162 344 l 1,10,-1
 162 14 l 2,11,12
 162 0 162 0 148 0 c 2,13,-1
 59 0 l 2,14,15
 45 0 45 0 45 14 c 2,16,-1
 45 686 l 2,17,18
 45 700 45 700 59 700 c 2,19,-1
 125 700 l 2,20,21
 131 700 131 700 136.5 696 c 128,-1,22
 142 692 142 692 144 687 c 2,23,-1
 248 366 l 1,24,-1
 248 686 l 2,25,26
 248 700 248 700 262 700 c 2,27,-1
 351 700 l 1,28,-1
 351 700 l 1,0,1
EndSplineSet
Validated: 5
EndChar

StartChar: O
Encoding: 79 79 14
Width: 360
GlyphClass: 1
Flags: W
LayerCount: 2
Fore
SplineSet
325 119 m 2,0,1
 325 93 325 93 315 70 c 128,-1,2
 305 47 305 47 288 30 c 128,-1,3
 271 13 271 13 248 3 c 128,-1,4
 225 -7 225 -7 199 -7 c 2,5,-1
 161 -7 l 2,6,7
 135 -7 135 -7 112 3 c 128,-1,8
 89 13 89 13 72 30 c 128,-1,9
 55 47 55 47 45 70 c 128,-1,10
 35 93 35 93 35 119 c 2,11,-1
 35 581 l 2,12,13
 35 607 35 607 45 630 c 128,-1,14
 55 653 55 653 72 670 c 128,-1,15
 89 687 89 687 112 697 c 128,-1,16
 135 707 135 707 161 707 c 2,17,-1
 199 707 l 2,18,19
 225 707 225 707 248 697 c 128,-1,20
 271 687 271 687 288 670 c 128,-1,21
 305 653 305 653 315 630 c 128,-1,22
 325 607 325 607 325 581 c 2,23,-1
 325 119 l 2,0,1
208 576 m 2,24,25
 208 586 208 586 201 593 c 128,-1,26
 194 600 194 600 184 600 c 2,27,-1
 176 600 l 2,28,29
 166 600 166 600 159 593 c 128,-1,30
 152 586 152 586 152 576 c 2,31,-1
 152 124 l 2,32,33
 152 114 152 114 159 107 c 128,-1,34
 166 100 166 100 176 100 c 2,35,-1
 184 100 l 2,36,37
 194 100 194 100 201 107 c 128,-1,38
 208 114 208 114 208 124 c 2,39,-1
 208 576 l 2,24,25
EndSplineSet
Validated: 1
EndChar

StartChar: P
Encoding: 80 80 15
Width: 355
GlyphClass: 1
Flags: W
LayerCount: 2
Fore
SplineSet
209 700 m 2,0,1
 235 700 235 700 258 690 c 128,-1,2
 281 680 281 680 298 663 c 128,-1,3
 315 646 315 646 325 623 c 128,-1,4
 335 600 335 600 335 574 c 2,5,-1
 335 411 l 2,6,7
 335 385 335 385 325 362 c 128,-1,8
 315 339 315 339 298 322 c 128,-1,9
 281 305 281 305 258 295 c 128,-1,10
 235 285 235 285 209 285 c 2,11,-1
 162 285 l 1,12,-1
 162 14 l 2,13,14
 162 0 162 0 148 0 c 2,15,-1
 59 0 l 2,16,17
 45 0 45 0 45 14 c 2,18,-1
 45 686 l 2,19,20
 45 700 45 700 59 700 c 2,21,-1
 209 700 l 2,0,1
218 569 m 2,22,23
 218 579 218 579 211 586 c 128,-1,24
 204 593 204 593 194 593 c 2,25,-1
 162 593 l 1,26,-1
 162 392 l 1,27,-1
 194 392 l 2,28,29
 204 392 204 392 211 399 c 128,-1,30
 218 406 218 406 218 416 c 2,31,-1
 218 569 l 2,22,23
EndSplineSet
Validated: 1
EndChar

StartChar: Q
Encoding: 81 81 16
Width: 364
GlyphClass: 1
Flags: W
LayerCount: 2
Fore
SplineSet
326 -40 m 2,0,1
 329 -45 329 -45 327.5 -50.5 c 128,-1,2
 326 -56 326 -56 321 -58 c 2,3,-1
 252 -89 l 2,4,5
 238 -95 238 -95 230 -83 c 2,6,-1
 179 -7 l 1,7,-1
 161 -7 l 2,8,9
 135 -7 135 -7 112 3 c 128,-1,10
 89 13 89 13 72 30 c 128,-1,11
 55 47 55 47 45 70 c 128,-1,12
 35 93 35 93 35 119 c 2,13,-1
 35 581 l 2,14,15
 35 607 35 607 45 630 c 128,-1,16
 55 653 55 653 72 670 c 128,-1,17
 89 687 89 687 112 697 c 128,-1,18
 135 707 135 707 161 707 c 2,19,-1
 199 707 l 2,20,21
 225 707 225 707 248 697 c 128,-1,22
 271 687 271 687 288 670 c 128,-1,23
 305 653 305 653 315 630 c 128,-1,24
 325 607 325 607 325 581 c 2,25,-1
 325 119 l 2,26,27
 325 91 325 91 314 66.5 c 128,-1,28
 303 42 303 42 283 25 c 1,29,-1
 326 -40 l 2,0,1
152 124 m 2,30,31
 152 114 152 114 159 107 c 128,-1,32
 166 100 166 100 176 100 c 2,33,-1
 184 100 l 2,34,35
 194 100 194 100 201 107 c 128,-1,36
 208 114 208 114 208 124 c 2,37,-1
 208 576 l 2,38,39
 208 586 208 586 201 593 c 128,-1,40
 194 600 194 600 184 600 c 2,41,-1
 176 600 l 2,42,43
 166 600 166 600 159 593 c 128,-1,44
 152 586 152 586 152 576 c 2,45,-1
 152 124 l 2,30,31
EndSplineSet
Validated: 1
EndChar

StartChar: R
Encoding: 82 82 17
Width: 376
GlyphClass: 1
Flags: W
LayerCount: 2
Fore
SplineSet
354 14 m 2,0,1
 357 0 357 0 344 0 c 2,2,-1
 253 0 l 2,3,4
 247 0 247 0 241.5 4 c 128,-1,5
 236 8 236 8 234 14 c 2,6,-1
 161 259 l 1,7,-1
 161 10 l 2,8,9
 158 0 158 0 147 0 c 2,10,-1
 58 0 l 2,11,12
 44 0 44 0 44 14 c 2,13,-1
 44 686 l 2,14,15
 44 700 44 700 58 700 c 2,16,-1
 208 700 l 2,17,18
 234 700 234 700 257 690 c 128,-1,19
 280 680 280 680 297 663 c 128,-1,20
 314 646 314 646 324 623 c 128,-1,21
 334 600 334 600 334 574 c 2,22,-1
 334 411 l 2,23,24
 334 374 334 374 315 344.5 c 128,-1,25
 296 315 296 315 265 299 c 1,26,-1
 354 14 l 2,0,1
161 392 m 1,27,-1
 193 392 l 2,28,29
 203 392 203 392 210 399 c 128,-1,30
 217 406 217 406 217 416 c 2,31,-1
 217 569 l 2,32,33
 217 579 217 579 210 586 c 128,-1,34
 203 593 203 593 193 593 c 2,35,-1
 161 593 l 1,36,-1
 161 392 l 1,27,-1
EndSplineSet
Validated: 1
EndChar

StartChar: S
Encoding: 83 83 18
Width: 350
GlyphClass: 1
Flags: W
LayerCount: 2
Fore
SplineSet
194 707 m 1,0,1
 220 707 220 707 243 697 c 128,-1,2
 266 687 266 687 283 670 c 128,-1,3
 300 653 300 653 310 630 c 128,-1,4
 320 607 320 607 320 581 c 2,5,-1
 320 543 l 2,6,7
 320 529 320 529 307 525 c 2,8,-1
 216 501 l 2,9,10
 203 497 203 497 203 511 c 2,11,-1
 203 576 l 2,12,13
 203 586 203 586 196 593 c 128,-1,14
 189 600 189 600 179 600 c 2,15,-1
 171 600 l 2,16,17
 161 600 161 600 154 593 c 128,-1,18
 147 586 147 586 147 576 c 2,19,-1
 147 485 l 2,20,21
 148 474 148 474 151 466 c 128,-1,22
 154 458 154 458 162 450 c 2,23,-1
 293 352 l 2,24,25
 309 338 309 338 313.5 323.5 c 128,-1,26
 318 309 318 309 320 291 c 2,27,-1
 320 119 l 2,28,29
 320 93 320 93 310 70 c 128,-1,30
 300 47 300 47 283 30 c 128,-1,31
 266 13 266 13 243 3 c 128,-1,32
 220 -7 220 -7 194 -7 c 2,33,-1
 156 -7 l 2,34,35
 130 -7 130 -7 107 3 c 128,-1,36
 84 13 84 13 67 30 c 128,-1,37
 50 47 50 47 40 70 c 128,-1,38
 30 93 30 93 30 119 c 2,39,-1
 30 215 l 2,40,41
 30 229 30 229 43 233 c 2,42,-1
 134 257 l 2,43,44
 147 261 147 261 147 247 c 2,45,-1
 147 124 l 2,46,47
 147 114 147 114 154 107 c 128,-1,48
 161 100 161 100 171 100 c 2,49,-1
 179 100 l 2,50,51
 189 100 189 100 196 107 c 128,-1,52
 203 114 203 114 203 124 c 2,53,-1
 203 256 l 2,54,55
 202 269 202 269 199 279 c 128,-1,56
 196 289 196 289 187 297 c 2,57,-1
 58 396 l 2,58,59
 43 410 43 410 36.5 424 c 128,-1,60
 30 438 30 438 30 461 c 2,61,-1
 30 581 l 2,62,63
 30 607 30 607 40 630 c 128,-1,64
 50 653 50 653 67 670 c 128,-1,65
 84 687 84 687 107 697 c 128,-1,66
 130 707 130 707 156 707 c 2,67,-1
 194 707 l 1,68,-1
 194 707 l 1,0,1
EndSplineSet
Validated: 5
EndChar

StartChar: T
Encoding: 84 84 19
Width: 336
GlyphClass: 1
Flags: W
LayerCount: 2
Fore
SplineSet
297 700 m 1,0,1
 311 700 311 700 311 686 c 2,2,-1
 311 597 l 2,3,4
 311 583 311 583 297 583 c 2,5,-1
 226 583 l 1,6,-1
 226 14 l 2,7,8
 226 0 226 0 212 0 c 2,9,-1
 123 0 l 2,10,11
 118 0 118 0 113.5 4 c 128,-1,12
 109 8 109 8 109 14 c 2,13,-1
 109 583 l 1,14,-1
 39 583 l 2,15,16
 25 583 25 583 25 597 c 2,17,-1
 25 686 l 2,18,19
 25 700 25 700 39 700 c 2,20,-1
 297 700 l 1,21,-1
 297 700 l 1,0,1
EndSplineSet
Validated: 5
EndChar

StartChar: U
Encoding: 85 85 20
Width: 360
GlyphClass: 1
Flags: W
LayerCount: 2
Fore
SplineSet
311 700 m 1,0,1
 325 700 325 700 325 686 c 2,2,-1
 325 119 l 2,3,4
 325 93 325 93 315 70 c 128,-1,5
 305 47 305 47 288 30 c 128,-1,6
 271 13 271 13 248 3 c 128,-1,7
 225 -7 225 -7 199 -7 c 2,8,-1
 161 -7 l 2,9,10
 135 -7 135 -7 112 3 c 128,-1,11
 89 13 89 13 72 30 c 128,-1,12
 55 47 55 47 45 70 c 128,-1,13
 35 93 35 93 35 119 c 2,14,-1
 35 686 l 2,15,16
 35 700 35 700 49 700 c 2,17,-1
 138 700 l 2,18,19
 152 700 152 700 152 686 c 2,20,-1
 152 124 l 2,21,22
 152 114 152 114 159 107 c 128,-1,23
 166 100 166 100 176 100 c 2,24,-1
 184 100 l 2,25,26
 194 100 194 100 201 107 c 128,-1,27
 208 114 208 114 208 124 c 2,28,-1
 208 686 l 2,29,30
 208 700 208 700 222 700 c 2,31,-1
 311 700 l 1,32,-1
 311 700 l 1,0,1
EndSplineSet
Validated: 5
EndChar

StartChar: V
Encoding: 86 86 21
Width: 378
GlyphClass: 1
Flags: W
LayerCount: 2
Fore
SplineSet
355 700 m 1,0,1
 369 700 369 700 367 686 c 2,2,-1
 249 14 l 2,3,4
 247 0 247 0 233 0 c 2,5,-1
 145 0 l 2,6,7
 131 0 131 0 129 14 c 2,8,-1
 11 686 l 2,9,10
 9 700 9 700 23 700 c 2,11,-1
 131 700 l 2,12,13
 144 700 144 700 146 686 c 2,14,-1
 187 262 l 1,15,-1
 191 262 l 1,16,-1
 232 686 l 2,17,18
 234 700 234 700 247 700 c 2,19,-1
 355 700 l 1,20,-1
 355 700 l 1,0,1
EndSplineSet
Validated: 5
EndChar

StartChar: W
Encoding: 87 87 22
Width: 569
GlyphClass: 1
Flags: W
LayerCount: 2
Fore
SplineSet
546 700 m 1,0,1
 560 700 560 700 558 686 c 2,2,-1
 440 14 l 2,3,4
 438 0 438 0 424 0 c 2,5,-1
 336 0 l 2,6,7
 322 0 322 0 320 14 c 2,8,-1
 285 263 l 1,9,-1
 284 263 l 1,10,-1
 249 14 l 2,11,12
 247 0 247 0 233 0 c 2,13,-1
 145 0 l 2,14,15
 131 0 131 0 129 14 c 2,16,-1
 11 686 l 2,17,18
 9 700 9 700 23 700 c 2,19,-1
 131 700 l 2,20,21
 144 700 144 700 146 686 c 2,22,-1
 191 278 l 1,23,-1
 195 278 l 1,24,-1
 229 686 l 2,25,26
 231 700 231 700 244 700 c 2,27,-1
 325 700 l 2,28,29
 338 700 338 700 340 686 c 2,30,-1
 374 278 l 1,31,-1
 378 278 l 1,32,-1
 423 686 l 2,33,34
 425 700 425 700 438 700 c 2,35,-1
 546 700 l 1,36,-1
 546 700 l 1,0,1
EndSplineSet
Validated: 5
EndChar

StartChar: X
Encoding: 88 88 23
Width: 378
GlyphClass: 1
Flags: W
LayerCount: 2
Fore
SplineSet
347 14 m 1,0,1
 350 0 350 0 336 0 c 2,2,-1
 243 0 l 2,3,4
 229 0 229 0 227 14 c 2,5,-1
 189 212 l 1,6,-1
 151 14 l 2,7,8
 149 0 149 0 135 0 c 2,9,-1
 42 0 l 2,10,11
 36 0 36 0 32.5 4 c 128,-1,12
 29 8 29 8 31 14 c 2,13,-1
 113 351 l 1,14,-1
 31 686 l 2,15,16
 29 691 29 691 32.5 695.5 c 128,-1,17
 36 700 36 700 42 700 c 2,18,-1
 135 700 l 2,19,20
 149 700 149 700 151 686 c 2,21,-1
 189 488 l 1,22,-1
 227 686 l 2,23,24
 229 700 229 700 243 700 c 2,25,-1
 336 700 l 2,26,27
 342 700 342 700 345.5 695.5 c 128,-1,28
 349 691 349 691 347 686 c 2,29,-1
 265 351 l 1,30,-1
 347 14 l 1,31,-1
 347 14 l 1,0,1
EndSplineSet
Validated: 5
EndChar

StartChar: Y
Encoding: 89 89 24
Width: 370
GlyphClass: 1
Flags: W
LayerCount: 2
Fore
SplineSet
349 700 m 1,0,1
 355 700 355 700 358 695.5 c 128,-1,2
 361 691 361 691 359 686 c 2,3,-1
 244 272 l 1,4,-1
 244 14 l 2,5,6
 244 0 244 0 230 0 c 2,7,-1
 140 0 l 2,8,9
 126 0 126 0 126 14 c 2,10,-1
 126 272 l 1,11,-1
 11 686 l 2,12,13
 9 691 9 691 12 695.5 c 128,-1,14
 15 700 15 700 21 700 c 2,15,-1
 127 700 l 2,16,17
 141 700 141 700 143 686 c 2,18,-1
 183 434 l 1,19,-1
 187 434 l 1,20,-1
 227 686 l 2,21,22
 229 700 229 700 243 700 c 2,23,-1
 349 700 l 1,24,-1
 349 700 l 1,0,1
EndSplineSet
Validated: 5
EndChar

StartChar: Z
Encoding: 90 90 25
Width: 353
GlyphClass: 1
Flags: W
LayerCount: 2
Fore
SplineSet
309 112 m 1,0,1
 323 112 323 112 323 98 c 2,2,-1
 323 14 l 2,3,4
 323 0 323 0 309 0 c 2,5,-1
 44 0 l 2,6,7
 38 0 38 0 34.5 4 c 128,-1,8
 31 8 31 8 33 14 c 2,9,-1
 172 588 l 1,10,-1
 44 588 l 2,11,12
 30 588 30 588 30 602 c 2,13,-1
 30 686 l 2,14,15
 30 700 30 700 44 700 c 2,16,-1
 307 700 l 2,17,18
 313 700 313 700 316.5 695.5 c 128,-1,19
 320 691 320 691 318 686 c 2,20,-1
 179 112 l 1,21,-1
 309 112 l 1,22,-1
 309 112 l 1,0,1
EndSplineSet
Validated: 5
EndChar

StartChar: exclam
Encoding: 33 33 27
Width: 208
GlyphClass: 1
Flags: W
LayerCount: 2
Fore
SplineSet
83 170 m 2,0,1
 70 170 70 170 68 184 c 2,2,-1
 46 394 l 2,3,4
 45 400 45 400 45 408 c 128,-1,5
 45 416 45 416 45 422 c 2,6,-1
 45 686 l 2,7,8
 45 700 45 700 59 700 c 2,9,-1
 149 700 l 2,10,11
 163 700 163 700 163 686 c 2,12,-1
 163 422 l 2,13,14
 163 416 163 416 163 408 c 128,-1,15
 163 400 163 400 162 394 c 2,16,-1
 140 184 l 2,17,18
 138 170 138 170 125 170 c 2,19,-1
 83 170 l 2,0,1
40 57 m 256,20,21
 40 83 40 83 59 102 c 128,-1,22
 78 121 78 121 104 121 c 256,23,24
 130 121 130 121 149 102 c 128,-1,25
 168 83 168 83 168 57 c 256,26,27
 168 31 168 31 149 12 c 128,-1,28
 130 -7 130 -7 104 -7 c 256,29,30
 78 -7 78 -7 59 12 c 128,-1,31
 40 31 40 31 40 57 c 256,20,21
EndSplineSet
Validated: 1
EndChar

StartChar: quotedbl
Encoding: 34 34 28
Width: 278
GlyphClass: 1
Flags: W
LayerCount: 2
Fore
SplineSet
34 476 m 2,0,1
 20 476 20 476 20 490 c 2,2,-1
 20 686 l 2,3,4
 20 700 20 700 34 700 c 2,5,-1
 109 700 l 2,6,7
 123 700 123 700 121 686 c 2,8,-1
 85 490 l 2,9,10
 83 476 83 476 69 476 c 2,11,-1
 34 476 l 2,0,1
170 476 m 2,12,13
 156 476 156 476 156 490 c 2,14,-1
 156 686 l 2,15,16
 156 700 156 700 170 700 c 2,17,-1
 245 700 l 2,18,19
 259 700 259 700 257 686 c 2,20,-1
 221 490 l 2,21,22
 219 476 219 476 205 476 c 2,23,-1
 170 476 l 2,12,13
EndSplineSet
Validated: 1
EndChar

StartChar: numbersign
Encoding: 35 35 29
Width: 476
GlyphClass: 1
Flags: W
LayerCount: 2
Fore
SplineSet
337 392 m 1,0,-1
 324 310 l 1,1,-1
 442 310 l 2,2,3
 456 310 456 310 456 296 c 2,4,-1
 456 264 l 2,5,6
 456 250 456 250 442 250 c 2,7,-1
 314 250 l 1,8,-1
 293 116 l 2,9,10
 291 102 291 102 277 102 c 2,11,-1
 246 102 l 2,12,13
 232 102 232 102 234 116 c 2,14,-1
 255 250 l 1,15,-1
 187 250 l 1,16,-1
 166 116 l 2,17,18
 164 102 164 102 150 102 c 2,19,-1
 119 102 l 2,20,21
 105 102 105 102 107 116 c 2,22,-1
 128 250 l 1,23,-1
 34 250 l 2,24,25
 20 250 20 250 20 264 c 2,26,-1
 20 296 l 2,27,28
 20 310 20 310 34 310 c 2,29,-1
 138 310 l 1,30,-1
 151 392 l 1,31,-1
 34 392 l 2,32,33
 20 392 20 392 20 406 c 2,34,-1
 20 438 l 2,35,36
 20 452 20 452 34 452 c 2,37,-1
 161 452 l 1,38,-1
 182 584 l 2,39,40
 184 598 184 598 198 598 c 2,41,-1
 229 598 l 2,42,43
 243 598 243 598 241 584 c 2,44,-1
 220 452 l 1,45,-1
 288 452 l 1,46,-1
 309 584 l 2,47,48
 311 598 311 598 325 598 c 2,49,-1
 356 598 l 2,50,51
 370 598 370 598 368 584 c 2,52,-1
 347 452 l 1,53,-1
 442 452 l 2,54,55
 456 452 456 452 456 438 c 2,56,-1
 456 406 l 2,57,58
 456 392 456 392 442 392 c 2,59,-1
 337 392 l 1,0,-1
278 392 m 1,60,-1
 210 392 l 1,61,-1
 197 310 l 1,62,-1
 265 310 l 1,63,-1
 278 392 l 1,60,-1
EndSplineSet
Validated: 1
EndChar

StartChar: dollar
Encoding: 36 36 30
Width: 330
GlyphClass: 1
Flags: W
LayerCount: 2
Fore
SplineSet
206 465 m 1,0,1
 193 461 193 461 193 475 c 2,2,-1
 193 540 l 2,3,4
 193 550 193 550 186 557 c 128,-1,5
 179 564 179 564 169 564 c 2,6,-1
 161 564 l 2,7,8
 151 564 151 564 144 557 c 128,-1,9
 137 550 137 550 137 540 c 2,10,-1
 137 485 l 2,11,12
 138 474 138 474 141 466 c 128,-1,13
 144 458 144 458 152 450 c 2,14,-1
 283 352 l 2,15,16
 299 338 299 338 303.5 323.5 c 128,-1,17
 308 309 308 309 310 291 c 2,18,-1
 310 156 l 2,19,20
 310 109 310 109 280.5 74.5 c 128,-1,21
 251 40 251 40 206 32 c 1,22,-1
 206 -6 l 2,23,24
 206 -20 206 -20 192 -20 c 2,25,-1
 138 -20 l 2,26,27
 124 -20 124 -20 124 -6 c 2,28,-1
 124 32 l 1,29,30
 79 40 79 40 49.5 74.5 c 128,-1,31
 20 109 20 109 20 156 c 2,32,-1
 20 213 l 2,33,34
 20 227 20 227 33 231 c 2,35,-1
 124 255 l 2,36,37
 137 259 137 259 137 245 c 2,38,-1
 137 161 l 2,39,40
 137 151 137 151 144 144 c 128,-1,41
 151 137 151 137 161 137 c 2,42,-1
 169 137 l 2,43,44
 179 137 179 137 186 144 c 128,-1,45
 193 151 193 151 193 161 c 2,46,-1
 193 256 l 2,47,48
 192 269 192 269 189 279 c 128,-1,49
 186 289 186 289 177 297 c 2,50,-1
 48 396 l 2,51,52
 33 410 33 410 26.5 424 c 128,-1,53
 20 438 20 438 20 461 c 2,54,-1
 20 545 l 2,55,56
 20 592 20 592 49.5 626.5 c 128,-1,57
 79 661 79 661 124 669 c 1,58,-1
 124 706 l 2,59,60
 124 720 124 720 138 720 c 2,61,-1
 192 720 l 2,62,63
 206 720 206 720 206 706 c 2,64,-1
 206 669 l 1,65,66
 251 661 251 661 280.5 626.5 c 128,-1,67
 310 592 310 592 310 545 c 2,68,-1
 310 507 l 2,69,70
 310 493 310 493 297 489 c 2,71,-1
 206 465 l 1,72,-1
 206 465 l 1,0,1
EndSplineSet
Validated: 5
EndChar

StartChar: percent
Encoding: 37 37 31
Width: 541
GlyphClass: 1
Flags: W
LayerCount: 2
Fore
SplineSet
77 0 m 2,0,1
 63 0 63 0 67 13 c 2,2,-1
 392 687 l 2,3,4
 396 700 396 700 410 700 c 2,5,-1
 464 700 l 2,6,7
 470 700 470 700 473 695.5 c 128,-1,8
 476 691 476 691 474 686 c 2,9,-1
 149 13 l 2,10,11
 145 0 145 0 131 0 c 2,12,-1
 77 0 l 2,0,1
145 707 m 2,13,14
 178 707 178 707 201.5 683.5 c 128,-1,15
 225 660 225 660 225 627 c 2,16,-1
 225 431 l 2,17,18
 225 398 225 398 201.5 374.5 c 128,-1,19
 178 351 178 351 145 351 c 2,20,-1
 115 351 l 2,21,22
 82 351 82 351 58.5 374.5 c 128,-1,23
 35 398 35 398 35 431 c 2,24,-1
 35 627 l 2,25,26
 35 660 35 660 58.5 683.5 c 128,-1,27
 82 707 82 707 115 707 c 2,28,-1
 145 707 l 2,13,14
148 623 m 2,29,30
 148 637 148 637 134 637 c 2,31,-1
 126 637 l 2,32,33
 112 637 112 637 112 623 c 2,34,-1
 112 435 l 2,35,36
 112 421 112 421 126 421 c 2,37,-1
 134 421 l 2,38,39
 148 421 148 421 148 435 c 2,40,-1
 148 623 l 2,29,30
426 349 m 2,41,42
 459 349 459 349 482.5 325.5 c 128,-1,43
 506 302 506 302 506 269 c 2,44,-1
 506 73 l 2,45,46
 506 40 506 40 482.5 16.5 c 128,-1,47
 459 -7 459 -7 426 -7 c 2,48,-1
 396 -7 l 2,49,50
 363 -7 363 -7 339.5 16.5 c 128,-1,51
 316 40 316 40 316 73 c 2,52,-1
 316 269 l 2,53,54
 316 302 316 302 339.5 325.5 c 128,-1,55
 363 349 363 349 396 349 c 2,56,-1
 426 349 l 2,41,42
429 265 m 2,57,58
 429 279 429 279 415 279 c 2,59,-1
 407 279 l 2,60,61
 393 279 393 279 393 265 c 2,62,-1
 393 77 l 2,63,64
 393 63 393 63 407 63 c 2,65,-1
 415 63 l 2,66,67
 429 63 429 63 429 77 c 2,68,-1
 429 265 l 2,57,58
EndSplineSet
Validated: 1
EndChar

StartChar: ampersand
Encoding: 38 38 32
Width: 412
GlyphClass: 1
Flags: W
LayerCount: 2
Fore
SplineSet
364 241 m 1,0,1
 372 239 372 239 372 231 c 2,2,-1
 372 198 l 2,3,4
 372 190 372 190 364 192 c 2,5,-1
 330 199 l 1,6,-1
 330 119 l 2,7,8
 330 93 330 93 320 70 c 128,-1,9
 310 47 310 47 293 30 c 128,-1,10
 276 13 276 13 253 3 c 128,-1,11
 230 -7 230 -7 204 -7 c 2,12,-1
 166 -7 l 2,13,14
 140 -7 140 -7 117 3 c 128,-1,15
 94 13 94 13 77 30 c 128,-1,16
 60 47 60 47 50 70 c 128,-1,17
 40 93 40 93 40 119 c 2,18,-1
 40 296 l 2,19,20
 40 317 40 317 45 339 c 0,21,22
 48 347 48 347 51.5 353.5 c 128,-1,23
 55 360 55 360 61 365 c 0,24,25
 74 376 74 376 90 382 c 1,26,27
 73 389 73 389 61 402 c 0,28,29
 47 418 47 418 42 442 c 0,30,31
 41 448 41 448 40.5 454.5 c 128,-1,32
 40 461 40 461 40 468 c 2,33,-1
 40 581 l 2,34,35
 40 607 40 607 50 630 c 128,-1,36
 60 653 60 653 77 670 c 128,-1,37
 94 687 94 687 117 697 c 128,-1,38
 140 707 140 707 166 707 c 2,39,-1
 204 707 l 2,40,41
 230 707 230 707 253 697 c 128,-1,42
 276 687 276 687 293 670 c 128,-1,43
 310 653 310 653 320 630 c 128,-1,44
 330 607 330 607 330 581 c 2,45,-1
 330 478 l 2,46,47
 330 464 330 464 317 468 c 2,48,-1
 226 492 l 2,49,50
 213 496 213 496 213 510 c 2,51,-1
 213 576 l 2,52,53
 213 586 213 586 206 593 c 128,-1,54
 199 600 199 600 189 600 c 2,55,-1
 181 600 l 2,56,57
 171 600 171 600 164 593 c 128,-1,58
 157 586 157 586 157 576 c 2,59,-1
 157 460 l 2,60,61
 157 444 157 444 162 439 c 0,62,63
 164 437 164 437 168.5 433.5 c 128,-1,64
 173 430 173 430 180 430 c 2,65,-1
 227 430 l 2,66,67
 232 430 232 430 235.5 426.5 c 128,-1,68
 239 423 239 423 239 418 c 2,69,-1
 239 344 l 2,70,71
 239 339 239 339 235.5 335.5 c 128,-1,72
 232 332 232 332 227 332 c 2,73,-1
 180 332 l 2,74,75
 171 332 171 332 167.5 329 c 128,-1,76
 164 326 164 326 162 324 c 0,77,78
 159 320 159 320 158 312 c 128,-1,79
 157 304 157 304 157 296 c 2,80,-1
 157 124 l 2,81,82
 157 114 157 114 164 107 c 128,-1,83
 171 100 171 100 181 100 c 2,84,-1
 189 100 l 2,85,86
 199 100 199 100 206 107 c 128,-1,87
 213 114 213 114 213 124 c 2,88,-1
 213 269 l 2,89,90
 213 277 213 277 221 275 c 2,91,-1
 364 241 l 1,92,-1
 364 241 l 1,0,1
EndSplineSet
Validated: 5
EndChar

StartChar: quotesingle
Encoding: 39 39 33
Width: 142
GlyphClass: 1
Flags: W
LayerCount: 2
Fore
SplineSet
34 476 m 2,0,1
 20 476 20 476 20 490 c 2,2,-1
 20 686 l 2,3,4
 20 700 20 700 34 700 c 2,5,-1
 109 700 l 2,6,7
 123 700 123 700 121 686 c 2,8,-1
 85 490 l 2,9,10
 83 476 83 476 69 476 c 2,11,-1
 34 476 l 2,0,1
EndSplineSet
Validated: 1
EndChar

StartChar: parenleft
Encoding: 40 40 34
Width: 235
GlyphClass: 1
Flags: W
LayerCount: 2
Fore
SplineSet
146 105 m 0,0,1
 159 57 159 57 178 19.5 c 128,-1,2
 197 -18 197 -18 222 -50 c 0,3,4
 230 -59 230 -59 221 -68 c 2,5,-1
 196 -93 l 2,6,7
 187 -102 187 -102 178 -93 c 0,8,9
 137 -56 137 -56 105.5 -11 c 128,-1,10
 74 34 74 34 53 90 c 0,11,12
 10 198 10 198 10 350 c 0,13,14
 10 500 10 500 53 610 c 0,15,16
 74 665 74 665 105.5 710.5 c 128,-1,17
 137 756 137 756 178 793 c 0,18,19
 187 802 187 802 196 793 c 2,20,-1
 221 768 l 2,21,22
 230 759 230 759 222 750 c 0,23,24
 197 718 197 718 178 680.5 c 128,-1,25
 159 643 159 643 146 595 c 0,26,27
 132 547 132 547 124.5 487 c 128,-1,28
 117 427 117 427 117 350 c 256,29,30
 117 273 117 273 124.5 213 c 128,-1,31
 132 153 132 153 146 105 c 0,0,1
EndSplineSet
Validated: 1
EndChar

StartChar: parenright
Encoding: 41 41 35
Width: 235
GlyphClass: 1
Flags: W
LayerCount: 2
Fore
SplineSet
89 105 m 1,0,1
 102 153 102 153 110 213 c 128,-1,2
 118 273 118 273 118 350 c 256,3,4
 118 427 118 427 110 487 c 128,-1,5
 102 547 102 547 89 595 c 0,6,7
 75 643 75 643 56.5 680.5 c 128,-1,8
 38 718 38 718 13 750 c 0,9,10
 5 759 5 759 14 768 c 2,11,-1
 39 793 l 2,12,13
 48 802 48 802 57 793 c 0,14,15
 139 719 139 719 182 610 c 0,16,17
 203 554 203 554 214 490 c 128,-1,18
 225 426 225 426 225 350 c 256,19,20
 225 274 225 274 214 209.5 c 128,-1,21
 203 145 203 145 182 90 c 0,22,23
 160 34 160 34 129 -11 c 128,-1,24
 98 -56 98 -56 57 -93 c 0,25,26
 48 -102 48 -102 39 -93 c 2,27,-1
 14 -68 l 2,28,29
 5 -59 5 -59 13 -50 c 0,30,31
 38 -18 38 -18 56.5 19.5 c 128,-1,32
 75 57 75 57 89 105 c 1,33,-1
 89 105 l 1,0,1
EndSplineSet
Validated: 1
EndChar

StartChar: asterisk
Encoding: 42 42 36
Width: 262
GlyphClass: 1
Flags: W
LayerCount: 2
Fore
SplineSet
232 545 m 0,0,1
 242 539 242 539 242 531 c 0,2,3
 242 527 242 527 240 524 c 2,4,-1
 226 499 l 2,5,6
 224 496 224 496 220 494 c 0,7,8
 213 490 213 490 203 496 c 0,9,10
 182 506 182 506 154 530 c 1,11,12
 157 513 157 513 159 497 c 128,-1,13
 161 481 161 481 161 470 c 256,14,15
 161 459 161 459 153 455 c 0,16,17
 149 453 149 453 145 453 c 2,18,-1
 117 453 l 2,19,20
 113 453 113 453 109 455 c 0,21,22
 106 457 106 457 103 460 c 128,-1,23
 100 463 100 463 101 470 c 0,24,25
 101 481 101 481 103 497 c 128,-1,26
 105 513 105 513 108 530 c 1,27,28
 79 506 79 506 59 496 c 0,29,30
 48 491 48 491 42 494 c 0,31,32
 38 496 38 496 36 499 c 2,33,-1
 22 524 l 2,34,35
 20 527 20 527 20 531 c 0,36,37
 20 534 20 534 22 538 c 128,-1,38
 24 542 24 542 30 545 c 0,39,40
 39 550 39 550 53 557.5 c 128,-1,41
 67 565 67 565 84 571 c 1,42,43
 67 577 67 577 53 584.5 c 128,-1,44
 39 592 39 592 30 597 c 0,45,46
 20 602 20 602 20 610 c 0,47,48
 20 614 20 614 22 618 c 2,49,-1
 36 643 l 2,50,51
 38 645 38 645 42 647 c 0,52,53
 49 651 49 651 59 646 c 0,54,55
 70 640 70 640 82 631.5 c 128,-1,56
 94 623 94 623 108 612 c 1,57,58
 105 629 105 629 103 645 c 128,-1,59
 101 661 101 661 101 672 c 0,60,61
 100 679 100 679 103 682 c 128,-1,62
 106 685 106 685 109 687 c 0,63,64
 113 689 113 689 117 689 c 2,65,-1
 145 689 l 2,66,67
 149 689 149 689 153 687 c 0,68,69
 161 683 161 683 161 672 c 256,70,71
 161 661 161 661 159 645 c 128,-1,72
 157 629 157 629 154 612 c 1,73,74
 168 623 168 623 180 631.5 c 128,-1,75
 192 640 192 640 203 646 c 0,76,77
 212 651 212 651 220 647 c 0,78,79
 224 645 224 645 226 643 c 2,80,-1
 240 618 l 2,81,82
 242 614 242 614 242 610 c 0,83,84
 242 603 242 603 232 597 c 0,85,86
 223 592 223 592 209 584.5 c 128,-1,87
 195 577 195 577 178 571 c 1,88,89
 195 565 195 565 209 557.5 c 128,-1,90
 223 550 223 550 232 545 c 0,0,1
EndSplineSet
Validated: 1
EndChar

StartChar: plus
Encoding: 43 43 37
Width: 438
GlyphClass: 1
Flags: W
LayerCount: 2
Fore
SplineSet
394 418 m 1,0,1
 408 418 408 418 408 404 c 2,2,-1
 408 328 l 2,3,4
 408 314 408 314 394 314 c 2,5,-1
 271 314 l 1,6,-1
 271 191 l 2,7,8
 271 177 271 177 257 177 c 2,9,-1
 181 177 l 2,10,11
 167 177 167 177 167 191 c 2,12,-1
 167 314 l 1,13,-1
 44 314 l 2,14,15
 30 314 30 314 30 328 c 2,16,-1
 30 404 l 2,17,18
 30 418 30 418 44 418 c 2,19,-1
 167 418 l 1,20,-1
 167 541 l 2,21,22
 167 555 167 555 181 555 c 2,23,-1
 257 555 l 2,24,25
 271 555 271 555 271 541 c 2,26,-1
 271 418 l 1,27,-1
 394 418 l 1,28,-1
 394 418 l 1,0,1
EndSplineSet
Validated: 5
EndChar

StartChar: comma
Encoding: 44 44 38
Width: 177
GlyphClass: 1
Flags: W
LayerCount: 2
Fore
SplineSet
53 -82 m 2,0,-1
 53 -67 l 2,1,2
 53 -66 53 -66 54 -64 c 0,3,4
 57 -61 57 -61 59 -61 c 0,5,6
 68 -61 68 -61 83.5 -52.5 c 128,-1,7
 99 -44 99 -44 104 -16 c 0,8,9
 105 -12 105 -12 104.5 -6.5 c 128,-1,10
 104 -1 104 -1 101 1 c 0,11,12
 99 3 99 3 93.5 1.5 c 128,-1,13
 88 0 88 0 85 0 c 0,14,15
 68 0 68 0 57.5 4.5 c 128,-1,16
 47 9 47 9 38 17 c 0,17,18
 20 33 20 33 20 63 c 0,19,20
 20 85 20 85 36 102 c 0,21,22
 54 121 54 121 81 121 c 0,23,24
 111 121 111 121 130.5 101 c 128,-1,25
 150 81 150 81 154 52 c 0,26,27
 156 42 156 42 156.5 32 c 128,-1,28
 157 22 157 22 155 12 c 0,29,30
 151 -15 151 -15 138.5 -37 c 128,-1,31
 126 -59 126 -59 103 -74 c 0,32,33
 97 -78 97 -78 90.5 -81.5 c 128,-1,34
 84 -85 84 -85 77 -87 c 0,35,36
 76 -87 76 -87 71 -88 c 128,-1,37
 66 -89 66 -89 61 -90 c 0,38,39
 59 -90 59 -90 57 -89 c 0,40,41
 53 -87 53 -87 53 -82 c 2,0,-1
EndSplineSet
Validated: 1
EndChar

StartChar: hyphen
Encoding: 45 45 39
Width: 298
GlyphClass: 1
Flags: W
LayerCount: 2
Fore
SplineSet
44 314 m 2,0,1
 30 314 30 314 30 328 c 2,2,-1
 30 404 l 2,3,4
 30 418 30 418 44 418 c 2,5,-1
 254 418 l 2,6,7
 268 418 268 418 268 404 c 2,8,-1
 268 328 l 2,9,10
 268 314 268 314 254 314 c 2,11,-1
 44 314 l 2,0,1
EndSplineSet
Validated: 1
EndChar

StartChar: period
Encoding: 46 46 40
Width: 168
GlyphClass: 1
Flags: W
LayerCount: 2
Fore
SplineSet
20 57 m 256,0,1
 20 83 20 83 39 102 c 128,-1,2
 58 121 58 121 84 121 c 256,3,4
 110 121 110 121 129 102 c 128,-1,5
 148 83 148 83 148 57 c 256,6,7
 148 31 148 31 129 12 c 128,-1,8
 110 -7 110 -7 84 -7 c 256,9,10
 58 -7 58 -7 39 12 c 128,-1,11
 20 31 20 31 20 57 c 256,0,1
EndSplineSet
Validated: 1
EndChar

StartChar: slash
Encoding: 47 47 41
Width: 292
GlyphClass: 1
Flags: W
LayerCount: 2
Fore
SplineSet
11 0 m 2,0,1
 -3 0 -3 0 1 13 c 2,2,-1
 209 687 l 2,3,4
 213 700 213 700 227 700 c 2,5,-1
 281 700 l 2,6,7
 287 700 287 700 290 695.5 c 128,-1,8
 293 691 293 691 291 686 c 2,9,-1
 83 13 l 2,10,11
 79 0 79 0 65 0 c 2,12,-1
 11 0 l 2,0,1
EndSplineSet
Validated: 1
EndChar

StartChar: zero
Encoding: 48 48 42
Width: 370
GlyphClass: 1
Flags: W
LayerCount: 2
Fore
SplineSet
330 119 m 2,0,1
 330 93 330 93 320 70 c 128,-1,2
 310 47 310 47 293 30 c 128,-1,3
 276 13 276 13 253 3 c 128,-1,4
 230 -7 230 -7 204 -7 c 2,5,-1
 166 -7 l 2,6,7
 140 -7 140 -7 117 3 c 128,-1,8
 94 13 94 13 77 30 c 128,-1,9
 60 47 60 47 50 70 c 128,-1,10
 40 93 40 93 40 119 c 2,11,-1
 40 581 l 2,12,13
 40 607 40 607 50 630 c 128,-1,14
 60 653 60 653 77 670 c 128,-1,15
 94 687 94 687 117 697 c 128,-1,16
 140 707 140 707 166 707 c 2,17,-1
 204 707 l 2,18,19
 230 707 230 707 253 697 c 128,-1,20
 276 687 276 687 293 670 c 128,-1,21
 310 653 310 653 320 630 c 128,-1,22
 330 607 330 607 330 581 c 2,23,-1
 330 119 l 2,0,1
213 576 m 2,24,25
 213 586 213 586 206 593 c 128,-1,26
 199 600 199 600 189 600 c 2,27,-1
 181 600 l 2,28,29
 171 600 171 600 164 593 c 128,-1,30
 157 586 157 586 157 576 c 2,31,-1
 157 124 l 2,32,33
 157 114 157 114 164 107 c 128,-1,34
 171 100 171 100 181 100 c 2,35,-1
 189 100 l 2,36,37
 199 100 199 100 206 107 c 128,-1,38
 213 114 213 114 213 124 c 2,39,-1
 213 576 l 2,24,25
EndSplineSet
Validated: 1
EndChar

StartChar: one
Encoding: 49 49 43
Width: 282
GlyphClass: 1
Flags: W
LayerCount: 2
Fore
SplineSet
229 700 m 1,0,1
 242 698 242 698 242 686 c 2,2,-1
 242 14 l 2,3,4
 242 0 242 0 228 0 c 2,5,-1
 139 0 l 2,6,7
 125 0 125 0 125 14 c 2,8,-1
 125 516 l 1,9,10
 112 506 112 506 92.5 496 c 128,-1,11
 73 486 73 486 56 483 c 0,12,13
 49 481 49 481 45 485 c 0,14,15
 40 488 40 488 40 495 c 2,16,-1
 40 570 l 2,17,18
 40 575 40 575 43.5 579 c 128,-1,19
 47 583 47 583 52 584 c 0,20,21
 75 593 75 593 94 609 c 0,22,23
 111 622 111 622 125.5 642.5 c 128,-1,24
 140 663 140 663 144 692 c 0,25,26
 147 700 147 700 155 700 c 2,27,-1
 229 700 l 1,28,-1
 229 700 l 1,0,1
EndSplineSet
Validated: 5
EndChar

StartChar: two
Encoding: 50 50 44
Width: 371
GlyphClass: 1
Flags: W
LayerCount: 2
Fore
SplineSet
232 249 m 0,0,1
 229 244 229 244 226 239.5 c 128,-1,2
 223 235 223 235 220 230 c 0,3,4
 205 206 205 206 195 185 c 128,-1,5
 185 164 185 164 179 148 c 0,6,7
 172 130 172 130 167 113 c 1,8,-1
 322 113 l 2,9,10
 331 113 331 113 331 104 c 2,11,-1
 331 9 l 2,12,13
 331 0 331 0 322 0 c 2,14,-1
 58 0 l 2,15,16
 51 0 51 0 49 9 c 0,17,18
 46 28 46 28 45.5 46.5 c 128,-1,19
 45 65 45 65 46 80 c 0,20,21
 47 98 47 98 50 114 c 0,22,23
 52 133 52 133 57 150 c 128,-1,24
 62 167 62 167 67 181 c 0,25,26
 73 197 73 197 80 210 c 0,27,28
 106 257 106 257 129 293 c 128,-1,29
 152 329 152 329 170 355 c 0,30,31
 191 385 191 385 209 407 c 0,32,33
 214 418 214 418 213 428 c 128,-1,34
 212 438 212 438 213 458 c 2,35,-1
 213 576 l 2,36,37
 213 586 213 586 206 593 c 128,-1,38
 199 600 199 600 189 600 c 2,39,-1
 181 600 l 2,40,41
 171 600 171 600 164 593 c 128,-1,42
 157 586 157 586 157 576 c 2,43,-1
 157 510 l 2,44,45
 157 496 157 496 144 492 c 2,46,-1
 53 468 l 2,47,48
 40 464 40 464 40 478 c 2,49,-1
 40 581 l 2,50,51
 40 607 40 607 50 630 c 128,-1,52
 60 653 60 653 77 670 c 128,-1,53
 94 687 94 687 117 697 c 128,-1,54
 140 707 140 707 166 707 c 2,55,-1
 204 707 l 2,56,57
 230 707 230 707 253 697 c 128,-1,58
 276 687 276 687 293 670 c 128,-1,59
 310 653 310 653 320 630 c 128,-1,60
 330 607 330 607 330 581 c 2,61,-1
 330 521 l 1,62,-1
 330 462 l 2,63,64
 330 431 330 431 322.5 402 c 128,-1,65
 315 373 315 373 298 347 c 0,66,67
 283 323 283 323 265.5 298 c 128,-1,68
 248 273 248 273 232 249 c 0,0,1
EndSplineSet
Validated: 33
EndChar

StartChar: three
Encoding: 51 51 45
Width: 370
GlyphClass: 1
Flags: W
LayerCount: 2
Fore
SplineSet
330 119 m 2,0,1
 330 93 330 93 320 70 c 128,-1,2
 310 47 310 47 293 30 c 128,-1,3
 276 13 276 13 253 3 c 128,-1,4
 230 -7 230 -7 204 -7 c 2,5,-1
 166 -7 l 2,6,7
 140 -7 140 -7 117 3 c 128,-1,8
 94 13 94 13 77 30 c 128,-1,9
 60 47 60 47 50 70 c 128,-1,10
 40 93 40 93 40 119 c 2,11,-1
 40 228 l 2,12,13
 40 242 40 242 53 246 c 2,14,-1
 144 270 l 2,15,16
 157 274 157 274 157 260 c 2,17,-1
 157 124 l 2,18,19
 157 114 157 114 164 107 c 128,-1,20
 171 100 171 100 181 100 c 2,21,-1
 189 100 l 2,22,23
 199 100 199 100 206 107 c 128,-1,24
 213 114 213 114 213 124 c 2,25,-1
 213 296 l 2,26,27
 213 304 213 304 212 312 c 128,-1,28
 211 320 211 320 208 324 c 0,29,30
 206 326 206 326 202.5 329 c 128,-1,31
 199 332 199 332 190 332 c 2,32,-1
 143 332 l 2,33,34
 138 332 138 332 134.5 335.5 c 128,-1,35
 131 339 131 339 131 344 c 2,36,-1
 131 418 l 2,37,38
 131 423 131 423 134.5 426.5 c 128,-1,39
 138 430 138 430 143 430 c 2,40,-1
 190 430 l 2,41,42
 197 430 197 430 201.5 433.5 c 128,-1,43
 206 437 206 437 208 439 c 0,44,45
 213 444 213 444 213 460 c 2,46,-1
 213 576 l 2,47,48
 213 586 213 586 206 593 c 128,-1,49
 199 600 199 600 189 600 c 2,50,-1
 181 600 l 2,51,52
 171 600 171 600 164 593 c 128,-1,53
 157 586 157 586 157 576 c 2,54,-1
 157 510 l 2,55,56
 157 496 157 496 144 492 c 2,57,-1
 53 468 l 2,58,59
 40 464 40 464 40 478 c 2,60,-1
 40 581 l 2,61,62
 40 607 40 607 50 630 c 128,-1,63
 60 653 60 653 77 670 c 128,-1,64
 94 687 94 687 117 697 c 128,-1,65
 140 707 140 707 166 707 c 2,66,-1
 204 707 l 2,67,68
 230 707 230 707 253 697 c 128,-1,69
 276 687 276 687 293 670 c 128,-1,70
 310 653 310 653 320 630 c 128,-1,71
 330 607 330 607 330 581 c 2,72,-1
 330 468 l 2,73,74
 330 461 330 461 329.5 454.5 c 128,-1,75
 329 448 329 448 328 442 c 0,76,77
 323 418 323 418 309 402 c 0,78,79
 296 389 296 389 280 382 c 1,80,81
 296 376 296 376 309 365 c 0,82,83
 318 356 318 356 325 339 c 0,84,85
 330 317 330 317 330 296 c 2,86,-1
 330 119 l 2,0,1
EndSplineSet
Validated: 1
EndChar

StartChar: four
Encoding: 52 52 46
Width: 390
GlyphClass: 1
Flags: W
LayerCount: 2
Fore
SplineSet
346 246 m 0,0,1
 350 242 350 242 350 237 c 2,2,-1
 350 154 l 2,3,4
 350 148 350 148 346 144 c 0,5,6
 340 140 340 140 337 140 c 2,7,-1
 305 140 l 1,8,-1
 305 14 l 2,9,10
 305 0 305 0 291 0 c 2,11,-1
 202 0 l 2,12,13
 188 0 188 0 188 14 c 2,14,-1
 188 140 l 1,15,-1
 33 140 l 2,16,17
 28 140 28 140 24 144 c 0,18,19
 20 147 20 147 20 154 c 2,20,-1
 20 239 l 2,21,22
 20 244 20 244 21 246 c 0,23,24
 21 248 21 248 22 249 c 0,25,26
 61 325 61 325 86.5 396.5 c 128,-1,27
 112 468 112 468 127 526.5 c 128,-1,28
 142 585 142 585 148.5 627 c 128,-1,29
 155 669 155 669 157 687 c 0,30,31
 157 690 157 690 159 693 c 0,32,33
 161 695 161 695 163.5 697.5 c 128,-1,34
 166 700 166 700 171 700 c 2,35,-1
 291 700 l 2,36,37
 305 700 305 700 305 686 c 2,38,-1
 305 250 l 1,39,-1
 337 250 l 2,40,41
 340 250 340 250 346 246 c 0,0,1
187 480 m 1,42,43
 181 449 181 449 171 412 c 0,44,45
 163 380 163 380 148.5 339 c 128,-1,46
 134 298 134 298 114 250 c 1,47,-1
 187 250 l 1,48,-1
 187 480 l 1,42,43
EndSplineSet
Validated: 1
EndChar

StartChar: five
Encoding: 53 53 47
Width: 371
GlyphClass: 1
Flags: W
LayerCount: 2
Fore
SplineSet
260 445 m 0,0,1
 295 435 295 435 313 409 c 128,-1,2
 331 383 331 383 330 347 c 2,3,-1
 330 119 l 2,4,5
 330 93 330 93 320 70 c 128,-1,6
 310 47 310 47 293 30 c 128,-1,7
 276 13 276 13 253 3 c 128,-1,8
 230 -7 230 -7 204 -7 c 2,9,-1
 166 -7 l 2,10,11
 140 -7 140 -7 117 3 c 128,-1,12
 94 13 94 13 77 30 c 128,-1,13
 60 47 60 47 50 70 c 128,-1,14
 40 93 40 93 40 119 c 2,15,-1
 40 160 l 2,16,17
 40 174 40 174 53 178 c 2,18,-1
 144 202 l 2,19,20
 157 206 157 206 157 192 c 2,21,-1
 157 124 l 2,22,23
 157 114 157 114 164 107 c 128,-1,24
 171 100 171 100 181 100 c 2,25,-1
 189 100 l 2,26,27
 199 100 199 100 206 107 c 128,-1,28
 213 114 213 114 213 124 c 2,29,-1
 213 321 l 2,30,31
 213 337 213 337 207 343 c 0,32,33
 205 345 205 345 200.5 348 c 128,-1,34
 196 351 196 351 189 351 c 2,35,-1
 181 351 l 2,36,37
 174 351 174 351 169.5 347.5 c 128,-1,38
 165 344 165 344 163 342 c 0,39,40
 157 336 157 336 157 321 c 2,41,-1
 157 293 l 2,42,43
 157 288 157 288 154 285 c 128,-1,44
 151 282 151 282 146 284 c 2,45,-1
 51 309 l 2,46,47
 40 313 40 313 40 323 c 2,48,-1
 40 686 l 2,49,50
 40 700 40 700 54 700 c 2,51,-1
 113 700 l 1,52,-1
 294 700 l 2,53,54
 308 700 308 700 308 686 c 2,55,-1
 308 601 l 2,56,57
 308 587 308 587 294 587 c 2,58,-1
 157 587 l 1,59,-1
 157 436 l 1,60,61
 187 450 187 450 222 450 c 0,62,63
 242 450 242 450 260 445 c 0,0,1
EndSplineSet
Validated: 33
EndChar

StartChar: six
Encoding: 54 54 48
Width: 370
GlyphClass: 1
Flags: W
LayerCount: 2
Fore
SplineSet
166 -7 m 2,0,1
 140 -7 140 -7 117 3 c 128,-1,2
 94 13 94 13 77 30 c 128,-1,3
 60 47 60 47 50 70 c 128,-1,4
 40 93 40 93 40 119 c 2,5,-1
 40 581 l 2,6,7
 40 607 40 607 50 630 c 128,-1,8
 60 653 60 653 77 670 c 128,-1,9
 94 687 94 687 117 697 c 128,-1,10
 140 707 140 707 166 707 c 2,11,-1
 204 707 l 2,12,13
 230 707 230 707 253 697 c 128,-1,14
 276 687 276 687 293 670 c 128,-1,15
 310 653 310 653 320 630 c 128,-1,16
 330 607 330 607 330 581 c 2,17,-1
 330 540 l 2,18,19
 330 526 330 526 317 522 c 2,20,-1
 226 498 l 2,21,22
 213 494 213 494 213 508 c 2,23,-1
 213 576 l 2,24,25
 213 586 213 586 206 593 c 128,-1,26
 199 600 199 600 189 600 c 2,27,-1
 181 600 l 2,28,29
 171 600 171 600 164 593 c 128,-1,30
 157 586 157 586 157 576 c 2,31,-1
 157 429 l 1,32,33
 187 443 187 443 222 443 c 0,34,35
 242 443 242 443 260 438 c 0,36,37
 330 418 330 418 330 340 c 2,38,-1
 330 119 l 2,39,40
 330 93 330 93 320 70 c 128,-1,41
 310 47 310 47 293 30 c 128,-1,42
 276 13 276 13 253 3 c 128,-1,43
 230 -7 230 -7 204 -7 c 2,44,-1
 166 -7 l 2,0,1
157 124 m 2,45,46
 157 114 157 114 164 107 c 128,-1,47
 171 100 171 100 181 100 c 2,48,-1
 189 100 l 2,49,50
 199 100 199 100 206 107 c 128,-1,51
 213 114 213 114 213 124 c 2,52,-1
 213 314 l 2,53,54
 213 330 213 330 207 336 c 0,55,56
 205 338 205 338 200.5 341 c 128,-1,57
 196 344 196 344 189 344 c 2,58,-1
 181 344 l 2,59,60
 174 344 174 344 169.5 340.5 c 128,-1,61
 165 337 165 337 163 335 c 0,62,63
 157 329 157 329 157 314 c 2,64,-1
 157 124 l 2,45,46
EndSplineSet
Validated: 1
EndChar

StartChar: seven
Encoding: 55 55 49
Width: 317
GlyphClass: 1
Flags: W
LayerCount: 2
Fore
SplineSet
106 0 m 1,0,1
 99 0 99 0 95 6 c 0,2,3
 93 9 93 9 93 13 c 0,4,5
 93 106 93 106 98 198 c 128,-1,6
 103 290 103 290 117 381 c 0,7,8
 129 456 129 456 144 509 c 128,-1,9
 159 562 159 562 168 590 c 1,10,-1
 33 590 l 2,11,12
 27 590 27 590 24 594 c 0,13,14
 20 598 20 598 20 603 c 2,15,-1
 20 687 l 2,16,17
 20 690 20 690 24 696 c 0,18,19
 28 700 28 700 33 700 c 2,20,-1
 278 700 l 2,21,22
 284 700 284 700 288 696 c 0,23,24
 292 690 292 690 292 687 c 2,25,-1
 292 594 l 1,26,27
 271 538 271 538 257.5 483.5 c 128,-1,28
 244 429 244 429 235.5 383 c 128,-1,29
 227 337 227 337 223.5 304 c 128,-1,30
 220 271 220 271 219 258 c 0,31,32
 214 198 214 198 212.5 138.5 c 128,-1,33
 211 79 211 79 211 13 c 0,34,35
 211 0 211 0 198 0 c 2,36,-1
 106 0 l 1,37,-1
 106 0 l 1,0,1
EndSplineSet
Validated: 5
EndChar

StartChar: eight
Encoding: 56 56 50
Width: 370
GlyphClass: 1
Flags: W
LayerCount: 2
Fore
SplineSet
309 402 m 0,0,1
 296 389 296 389 280 382 c 1,2,3
 296 376 296 376 309 365 c 0,4,5
 318 356 318 356 325 339 c 0,6,7
 330 317 330 317 330 296 c 2,8,-1
 330 119 l 2,9,10
 330 93 330 93 320 70 c 128,-1,11
 310 47 310 47 293 30 c 128,-1,12
 276 13 276 13 253 3 c 128,-1,13
 230 -7 230 -7 204 -7 c 2,14,-1
 166 -7 l 2,15,16
 140 -7 140 -7 117 3 c 128,-1,17
 94 13 94 13 77 30 c 128,-1,18
 60 47 60 47 50 70 c 128,-1,19
 40 93 40 93 40 119 c 2,20,-1
 40 296 l 2,21,22
 40 317 40 317 45 339 c 0,23,24
 48 347 48 347 51.5 353.5 c 128,-1,25
 55 360 55 360 61 365 c 0,26,27
 74 376 74 376 90 382 c 1,28,29
 73 389 73 389 61 402 c 0,30,31
 47 418 47 418 42 442 c 0,32,33
 41 448 41 448 40.5 454.5 c 128,-1,34
 40 461 40 461 40 468 c 2,35,-1
 40 581 l 2,36,37
 40 607 40 607 50 630 c 128,-1,38
 60 653 60 653 77 670 c 128,-1,39
 94 687 94 687 117 697 c 128,-1,40
 140 707 140 707 166 707 c 2,41,-1
 204 707 l 2,42,43
 230 707 230 707 253 697 c 128,-1,44
 276 687 276 687 293 670 c 128,-1,45
 310 653 310 653 320 630 c 128,-1,46
 330 607 330 607 330 581 c 2,47,-1
 330 468 l 2,48,49
 330 461 330 461 329.5 454.5 c 128,-1,50
 329 448 329 448 328 442 c 0,51,52
 323 418 323 418 309 402 c 0,0,1
213 291 m 2,53,54
 213 299 213 299 212 307 c 128,-1,55
 211 315 211 315 208 319 c 0,56,57
 206 321 206 321 202.5 324 c 128,-1,58
 199 327 199 327 190 327 c 2,59,-1
 180 327 l 2,60,61
 171 327 171 327 167.5 324 c 128,-1,62
 164 321 164 321 162 319 c 0,63,64
 159 315 159 315 158 307 c 128,-1,65
 157 299 157 299 157 291 c 2,66,-1
 157 124 l 2,67,68
 157 114 157 114 164 107 c 128,-1,69
 171 100 171 100 181 100 c 2,70,-1
 189 100 l 2,71,72
 199 100 199 100 206 107 c 128,-1,73
 213 114 213 114 213 124 c 2,74,-1
 213 291 l 2,53,54
213 576 m 2,75,76
 213 586 213 586 206 593 c 128,-1,77
 199 600 199 600 189 600 c 2,78,-1
 181 600 l 2,79,80
 171 600 171 600 164 593 c 128,-1,81
 157 586 157 586 157 576 c 2,82,-1
 157 467 l 2,83,84
 157 451 157 451 162 446 c 0,85,86
 164 444 164 444 168.5 440.5 c 128,-1,87
 173 437 173 437 180 437 c 2,88,-1
 190 437 l 2,89,90
 197 437 197 437 201.5 440.5 c 128,-1,91
 206 444 206 444 208 446 c 0,92,93
 213 451 213 451 213 467 c 2,94,-1
 213 576 l 2,75,76
EndSplineSet
Validated: 1
EndChar

StartChar: nine
Encoding: 57 57 51
Width: 370
GlyphClass: 1
Flags: W
LayerCount: 2
Fore
SplineSet
204 707 m 2,0,1
 230 707 230 707 253 697 c 128,-1,2
 276 687 276 687 293 670 c 128,-1,3
 310 653 310 653 320 630 c 128,-1,4
 330 607 330 607 330 581 c 2,5,-1
 330 119 l 2,6,7
 330 93 330 93 320 70 c 128,-1,8
 310 47 310 47 293 30 c 128,-1,9
 276 13 276 13 253 3 c 128,-1,10
 230 -7 230 -7 204 -7 c 2,11,-1
 166 -7 l 2,12,13
 140 -7 140 -7 117 3 c 128,-1,14
 94 13 94 13 77 30 c 128,-1,15
 60 47 60 47 50 70 c 128,-1,16
 40 93 40 93 40 119 c 2,17,-1
 40 160 l 2,18,19
 40 174 40 174 53 178 c 2,20,-1
 144 202 l 2,21,22
 157 206 157 206 157 192 c 2,23,-1
 157 124 l 2,24,25
 157 114 157 114 164 107 c 128,-1,26
 171 100 171 100 181 100 c 2,27,-1
 189 100 l 2,28,29
 199 100 199 100 206 107 c 128,-1,30
 213 114 213 114 213 124 c 2,31,-1
 213 271 l 1,32,33
 182 257 182 257 148 257 c 0,34,35
 128 257 128 257 110 262 c 0,36,37
 40 281 40 281 40 360 c 2,38,-1
 40 581 l 2,39,40
 40 607 40 607 50 630 c 128,-1,41
 60 653 60 653 77 670 c 128,-1,42
 94 687 94 687 117 697 c 128,-1,43
 140 707 140 707 166 707 c 2,44,-1
 204 707 l 2,0,1
213 576 m 2,45,46
 213 586 213 586 206 593 c 128,-1,47
 199 600 199 600 189 600 c 2,48,-1
 181 600 l 2,49,50
 171 600 171 600 164 593 c 128,-1,51
 157 586 157 586 157 576 c 2,52,-1
 157 386 l 2,53,54
 157 370 157 370 163 364 c 0,55,56
 165 362 165 362 169.5 359 c 128,-1,57
 174 356 174 356 181 356 c 2,58,-1
 189 356 l 2,59,60
 196 356 196 356 200.5 359.5 c 128,-1,61
 205 363 205 363 207 365 c 0,62,63
 213 371 213 371 213 386 c 2,64,-1
 213 576 l 2,45,46
EndSplineSet
Validated: 1
EndChar

StartChar: colon
Encoding: 58 58 52
Width: 168
GlyphClass: 1
Flags: W
LayerCount: 2
Fore
SplineSet
20 442 m 256,0,1
 20 468 20 468 39 487 c 128,-1,2
 58 506 58 506 84 506 c 256,3,4
 110 506 110 506 129 487 c 128,-1,5
 148 468 148 468 148 442 c 256,6,7
 148 416 148 416 129 397 c 128,-1,8
 110 378 110 378 84 378 c 256,9,10
 58 378 58 378 39 397 c 128,-1,11
 20 416 20 416 20 442 c 256,0,1
20 217 m 256,12,13
 20 243 20 243 39 262 c 128,-1,14
 58 281 58 281 84 281 c 256,15,16
 110 281 110 281 129 262 c 128,-1,17
 148 243 148 243 148 217 c 256,18,19
 148 191 148 191 129 172 c 128,-1,20
 110 153 110 153 84 153 c 256,21,22
 58 153 58 153 39 172 c 128,-1,23
 20 191 20 191 20 217 c 256,12,13
EndSplineSet
Validated: 1
EndChar

StartChar: semicolon
Encoding: 59 59 53
Width: 177
GlyphClass: 1
Flags: W
LayerCount: 2
Fore
SplineSet
53 80 m 2,0,-1
 53 95 l 2,1,2
 53 96 53 96 54 98 c 0,3,4
 57 101 57 101 59 101 c 0,5,6
 68 101 68 101 83.5 109.5 c 128,-1,7
 99 118 99 118 104 146 c 0,8,9
 105 150 105 150 104.5 155.5 c 128,-1,10
 104 161 104 161 101 163 c 0,11,12
 99 165 99 165 93.5 163.5 c 128,-1,13
 88 162 88 162 85 162 c 0,14,15
 68 162 68 162 57.5 166.5 c 128,-1,16
 47 171 47 171 38 179 c 0,17,18
 20 195 20 195 20 225 c 0,19,20
 20 247 20 247 36 264 c 0,21,22
 54 283 54 283 81 283 c 0,23,24
 111 283 111 283 130.5 263 c 128,-1,25
 150 243 150 243 154 214 c 0,26,27
 156 204 156 204 156.5 194 c 128,-1,28
 157 184 157 184 155 174 c 0,29,30
 151 147 151 147 138.5 125 c 128,-1,31
 126 103 126 103 103 88 c 0,32,33
 97 84 97 84 90.5 80.5 c 128,-1,34
 84 77 84 77 77 75 c 0,35,36
 76 75 76 75 71 74 c 128,-1,37
 66 73 66 73 61 72 c 0,38,39
 59 72 59 72 57 73 c 0,40,41
 53 75 53 75 53 80 c 2,0,-1
20 442 m 256,42,43
 20 468 20 468 39 487 c 128,-1,44
 58 506 58 506 84 506 c 256,45,46
 110 506 110 506 129 487 c 128,-1,47
 148 468 148 468 148 442 c 256,48,49
 148 416 148 416 129 397 c 128,-1,50
 110 378 110 378 84 378 c 256,51,52
 58 378 58 378 39 397 c 128,-1,53
 20 416 20 416 20 442 c 256,42,43
EndSplineSet
Validated: 1
EndChar

StartChar: less
Encoding: 60 60 54
Width: 320
GlyphClass: 1
Flags: W
LayerCount: 2
Fore
SplineSet
153 353 m 2,0,1
 152 352 152 352 152 350 c 256,2,3
 152 348 152 348 153 347 c 2,4,-1
 234 280 l 1,5,-1
 279 242 l 2,6,7
 290 233 290 233 290 219 c 2,8,-1
 290 121 l 2,9,10
 290 115 290 115 287 113 c 128,-1,11
 284 111 284 111 279 115 c 2,12,-1
 23 330 l 2,13,14
 21 331 21 331 20.5 333 c 128,-1,15
 20 335 20 335 20 337 c 2,16,-1
 20 363 l 2,17,18
 20 368 20 368 23 370 c 2,19,-1
 279 585 l 2,20,21
 284 589 284 589 287 587 c 128,-1,22
 290 585 290 585 290 579 c 2,23,-1
 290 481 l 2,24,25
 290 467 290 467 279 458 c 2,26,-1
 234 420 l 1,27,-1
 153 353 l 2,0,1
EndSplineSet
Validated: 1
EndChar

StartChar: equal
Encoding: 61 61 55
Width: 352
GlyphClass: 1
Flags: W
LayerCount: 2
Fore
SplineSet
44 386 m 2,0,1
 30 386 30 386 30 400 c 2,2,-1
 30 476 l 2,3,4
 30 490 30 490 44 490 c 2,5,-1
 308 490 l 2,6,7
 322 490 322 490 322 476 c 2,8,-1
 322 400 l 2,9,10
 322 386 322 386 308 386 c 2,11,-1
 44 386 l 2,0,1
44 236 m 2,12,13
 30 236 30 236 30 250 c 2,14,-1
 30 326 l 2,15,16
 30 340 30 340 44 340 c 2,17,-1
 308 340 l 2,18,19
 322 340 322 340 322 326 c 2,20,-1
 322 250 l 2,21,22
 322 236 322 236 308 236 c 2,23,-1
 44 236 l 2,12,13
EndSplineSet
Validated: 1
EndChar

StartChar: greater
Encoding: 62 62 56
Width: 320
GlyphClass: 1
Flags: W
LayerCount: 2
Fore
SplineSet
41 458 m 2,0,1
 30 467 30 467 30 481 c 2,2,-1
 30 579 l 2,3,4
 30 585 30 585 33 587 c 128,-1,5
 36 589 36 589 41 585 c 2,6,-1
 297 370 l 2,7,8
 300 368 300 368 300 363 c 2,9,-1
 300 337 l 2,10,11
 300 335 300 335 299.5 333 c 128,-1,12
 299 331 299 331 297 330 c 2,13,-1
 41 115 l 2,14,15
 36 111 36 111 33 113 c 128,-1,16
 30 115 30 115 30 121 c 2,17,-1
 30 219 l 2,18,19
 30 233 30 233 41 242 c 2,20,-1
 167 347 l 2,21,22
 168 348 168 348 168 350 c 256,23,24
 168 352 168 352 167 353 c 2,25,-1
 41 458 l 2,0,1
EndSplineSet
Validated: 1
EndChar

StartChar: question
Encoding: 63 63 57
Width: 382
GlyphClass: 1
Flags: W
LayerCount: 2
Fore
SplineSet
98 57 m 256,0,1
 98 83 98 83 117 102 c 128,-1,2
 136 121 136 121 162 121 c 256,3,4
 188 121 188 121 207 102 c 128,-1,5
 226 83 226 83 226 57 c 256,6,7
 226 31 226 31 207 12 c 128,-1,8
 188 -7 188 -7 162 -7 c 256,9,10
 136 -7 136 -7 117 12 c 128,-1,11
 98 31 98 31 98 57 c 256,0,1
188 707 m 0,12,13
 239 707 239 707 270 689.5 c 128,-1,14
 301 672 301 672 318.5 644.5 c 128,-1,15
 336 617 336 617 341.5 583.5 c 128,-1,16
 347 550 347 550 346 519 c 0,17,18
 345 490 345 490 343 473 c 128,-1,19
 341 456 341 456 334 441 c 128,-1,20
 327 426 327 426 312 407.5 c 128,-1,21
 297 389 297 389 270 358 c 0,22,23
 252 337 252 337 234 318 c 128,-1,24
 216 299 216 299 207 277 c 0,25,26
 201 263 201 263 198 239.5 c 128,-1,27
 195 216 195 216 193 197 c 2,28,-1
 192 182 l 2,29,30
 192 177 192 177 188.5 174 c 128,-1,31
 185 171 185 171 180 171 c 2,32,-1
 138 171 l 2,33,34
 127 171 127 171 125 182 c 0,35,36
 123 206 123 206 121 226 c 0,37,38
 119 243 119 243 118 258 c 128,-1,39
 117 273 117 273 117 277 c 0,40,41
 116 300 116 300 124 320 c 128,-1,42
 132 340 132 340 144.5 359.5 c 128,-1,43
 157 379 157 379 173.5 399 c 128,-1,44
 190 419 190 419 205 442 c 0,45,46
 214 456 214 456 218.5 465.5 c 128,-1,47
 223 475 223 475 225.5 483.5 c 128,-1,48
 228 492 228 492 228 500.5 c 128,-1,49
 228 509 228 509 228 521 c 0,50,51
 228 555 228 555 221 574.5 c 128,-1,52
 214 594 214 594 188 594 c 0,53,54
 169 594 169 594 160.5 580 c 128,-1,55
 152 566 152 566 152 543 c 2,56,-1
 152 490 l 2,57,58
 152 485 152 485 149 481 c 128,-1,59
 146 477 146 477 141 476 c 2,60,-1
 46 453 l 2,61,62
 41 451 41 451 38 454 c 128,-1,63
 35 457 35 457 35 462 c 2,64,-1
 35 538 l 2,65,66
 35 620 35 620 75 663.5 c 128,-1,67
 115 707 115 707 188 707 c 0,12,13
EndSplineSet
Validated: 33
EndChar

StartChar: at
Encoding: 64 64 58
Width: 536
GlyphClass: 1
Flags: W
LayerCount: 2
Fore
SplineSet
217 202 m 0,0,1
 186 202 186 202 170 218 c 128,-1,2
 154 234 154 234 146 254 c 0,3,4
 137 277 137 277 136 306 c 0,5,6
 136 330 136 330 140.5 355 c 128,-1,7
 145 380 145 380 156 403 c 0,8,9
 178 451 178 451 217 478 c 0,10,11
 244 497 244 497 275 497 c 0,12,13
 301 497 301 497 319 482 c 2,14,-1
 324 477 l 1,15,-1
 326 482 l 2,16,17
 330 492 330 492 338 492 c 2,18,-1
 400 492 l 2,19,20
 405 492 405 492 410 487 c 0,21,22
 414 482 414 482 412 475 c 2,23,-1
 364 309 l 2,24,25
 363 305 363 305 360.5 297 c 128,-1,26
 358 289 358 289 357.5 280 c 128,-1,27
 357 271 357 271 358.5 264 c 128,-1,28
 360 257 360 257 368 256 c 0,29,30
 373 255 373 255 381 256.5 c 128,-1,31
 389 258 389 258 403 269 c 0,32,33
 415 276 415 276 425 294 c 0,34,35
 435 311 435 311 441 337 c 128,-1,36
 447 363 447 363 447 395 c 0,37,38
 447 440 447 440 434 474.5 c 128,-1,39
 421 509 421 509 398 534 c 256,40,41
 375 559 375 559 344.5 571 c 128,-1,42
 314 583 314 583 276 585 c 0,43,44
 246 586 246 586 208 571 c 128,-1,45
 170 556 170 556 143 518 c 0,46,47
 120 485 120 485 105 442 c 128,-1,48
 90 399 90 399 90 348 c 0,49,50
 90 295 90 295 102 252.5 c 128,-1,51
 114 210 114 210 139 180 c 256,52,53
 164 150 164 150 199.5 133.5 c 128,-1,54
 235 117 235 117 276 117 c 0,55,56
 316 117 316 117 347.5 130.5 c 128,-1,57
 379 144 379 144 401 166 c 0,58,59
 405 170 405 170 411 170 c 256,60,61
 417 170 417 170 420 166 c 2,62,-1
 444 137 l 2,63,64
 447 133 447 133 446 126.5 c 128,-1,65
 445 120 445 120 441 116 c 0,66,67
 410 85 410 85 370 70 c 128,-1,68
 330 55 330 55 279 53 c 0,69,70
 234 51 234 51 199 63.5 c 128,-1,71
 164 76 164 76 139 93 c 0,72,73
 110 112 110 112 88 137 c 0,74,75
 20 214 20 214 20 350 c 0,76,77
 20 415 20 415 39.5 469 c 128,-1,78
 59 523 59 523 94 564 c 256,79,80
 129 605 129 605 175.5 628 c 128,-1,81
 222 651 222 651 276 651 c 0,82,83
 307 651 307 651 334 644.5 c 128,-1,84
 361 638 361 638 384 627 c 256,85,86
 407 616 407 616 424.5 600 c 128,-1,87
 442 584 442 584 457 565 c 0,88,89
 486 527 486 527 501 482 c 128,-1,90
 516 437 516 437 516 394 c 0,91,92
 516 337 516 337 494 287 c 0,93,94
 483 264 483 264 467 244.5 c 128,-1,95
 451 225 451 225 430 212 c 0,96,97
 401 195 401 195 365 195 c 0,98,99
 337 195 337 195 319 206 c 0,100,101
 299 218 299 218 290 240 c 1,102,103
 285 235 285 235 280.5 230 c 128,-1,104
 276 225 276 225 271 221 c 0,105,106
 246 202 246 202 217 202 c 0,0,1
225 286 m 0,107,108
 226 280 226 280 230 277 c 0,109,110
 237 270 237 270 251 278 c 0,111,112
 256 280 256 280 262 288 c 0,113,114
 274 303 274 303 281 329 c 2,115,-1
 301 404 l 2,116,117
 301 413 301 413 299 421 c 0,118,119
 296 426 296 426 293 428 c 0,120,121
 292 429 292 429 286 429 c 0,122,123
 275 429 275 429 264 419 c 0,124,125
 252 408 252 408 242 389 c 256,126,127
 232 370 232 370 226.5 348.5 c 128,-1,128
 221 327 221 327 221 310 c 0,129,130
 221 296 221 296 225 286 c 0,107,108
EndSplineSet
Validated: 33
EndChar

StartChar: bracketleft
Encoding: 91 91 59
Width: 230
GlyphClass: 1
Flags: W
LayerCount: 2
Fore
SplineSet
110 720 m 1,0,-1
 110 -20 l 1,1,-1
 206 -20 l 2,2,3
 220 -20 220 -20 220 -34 c 2,4,-1
 220 -102 l 2,5,6
 220 -116 220 -116 206 -116 c 2,7,-1
 24 -116 l 2,8,9
 10 -116 10 -116 10 -102 c 2,10,-1
 10 802 l 2,11,12
 10 816 10 816 24 816 c 2,13,-1
 206 816 l 2,14,15
 220 816 220 816 220 802 c 2,16,-1
 220 734 l 2,17,18
 220 720 220 720 206 720 c 2,19,-1
 110 720 l 1,0,-1
EndSplineSet
Validated: 1
EndChar

StartChar: backslash
Encoding: 92 92 60
Width: 292
GlyphClass: 1
Flags: W
LayerCount: 2
Fore
SplineSet
227 0 m 2,0,1
 213 0 213 0 209 13 c 2,2,-1
 1 686 l 2,3,4
 -1 691 -1 691 2 695.5 c 128,-1,5
 5 700 5 700 11 700 c 2,6,-1
 65 700 l 2,7,8
 79 700 79 700 83 687 c 2,9,-1
 291 13 l 2,10,11
 295 0 295 0 281 0 c 2,12,-1
 227 0 l 2,0,1
EndSplineSet
Validated: 1
EndChar

StartChar: bracketright
Encoding: 93 93 61
Width: 230
GlyphClass: 1
Flags: W
LayerCount: 2
Fore
SplineSet
24 720 m 2,0,1
 10 720 10 720 10 734 c 2,2,-1
 10 802 l 2,3,4
 10 816 10 816 24 816 c 2,5,-1
 206 816 l 2,6,7
 220 816 220 816 220 802 c 2,8,-1
 220 -102 l 2,9,10
 220 -116 220 -116 206 -116 c 2,11,-1
 24 -116 l 2,12,13
 10 -116 10 -116 10 -102 c 2,14,-1
 10 -34 l 2,15,16
 10 -20 10 -20 24 -20 c 2,17,-1
 120 -20 l 1,18,-1
 120 720 l 1,19,-1
 24 720 l 2,0,1
EndSplineSet
Validated: 1
EndChar

StartChar: asciicircum
Encoding: 94 94 62
Width: 278
GlyphClass: 1
Flags: W
LayerCount: 2
Fore
SplineSet
274 555 m 1,0,1
 279 548 279 548 276 539 c 0,2,3
 274 533 274 533 264 533 c 2,4,-1
 201 533 l 2,5,6
 193 533 193 533 190 538 c 2,7,-1
 139 608 l 1,8,-1
 88 538 l 2,9,10
 83 533 83 533 77 533 c 2,11,-1
 14 533 l 2,12,13
 4 533 4 533 2 539 c 0,14,15
 -1 548 -1 548 4 555 c 2,16,-1
 128 695 l 2,17,18
 131 700 131 700 138 700 c 2,19,-1
 140 700 l 2,20,21
 145 700 145 700 150 695 c 2,22,-1
 274 555 l 1,23,-1
 274 555 l 1,0,1
EndSplineSet
Validated: 5
EndChar

StartChar: underscore
Encoding: 95 95 63
Width: 418
GlyphClass: 1
Flags: W
LayerCount: 2
Fore
SplineSet
34 -90 m 2,0,1
 20 -90 20 -90 20 -76 c 2,2,-1
 20 -14 l 2,3,4
 20 0 20 0 34 0 c 2,5,-1
 384 0 l 2,6,7
 398 0 398 0 398 -14 c 2,8,-1
 398 -76 l 2,9,10
 398 -90 398 -90 384 -90 c 2,11,-1
 34 -90 l 2,0,1
EndSplineSet
Validated: 1
EndChar

StartChar: braceleft
Encoding: 123 123 64
Width: 296
GlyphClass: 1
Flags: W
LayerCount: 2
Fore
SplineSet
208 691 m 1,0,1
 193 691 193 691 182 686 c 0,2,3
 172 681 172 681 164.5 671 c 128,-1,4
 157 661 157 661 159 641 c 0,5,6
 160 624 160 624 166 605 c 128,-1,7
 172 586 172 586 180 566 c 256,8,9
 188 546 188 546 197 527 c 128,-1,10
 206 508 206 508 213 490 c 0,11,12
 226 457 226 457 227 429 c 0,13,14
 228 405 228 405 217 382 c 128,-1,15
 206 359 206 359 171 350 c 1,16,17
 206 340 206 340 217 317.5 c 128,-1,18
 228 295 228 295 227 271 c 0,19,20
 226 243 226 243 213 210 c 0,21,22
 206 191 206 191 197 172.5 c 128,-1,23
 188 154 188 154 180 134 c 256,24,25
 172 114 172 114 166 95 c 128,-1,26
 160 76 160 76 159 59 c 0,27,28
 157 39 157 39 164.5 29 c 128,-1,29
 172 19 172 19 182 14 c 0,30,31
 193 9 193 9 208 9 c 2,32,-1
 241 9 l 2,33,34
 248 9 248 9 252 5 c 256,35,36
 256 1 256 1 256 -5 c 2,37,-1
 256 -62 l 2,38,39
 256 -69 256 -69 253.5 -72.5 c 128,-1,40
 251 -76 251 -76 248 -78 c 0,41,42
 244 -81 244 -81 241 -82 c 0,43,44
 220 -87 220 -87 201.5 -86 c 128,-1,45
 183 -85 183 -85 169 -81 c 0,46,47
 152 -77 152 -77 139 -70 c 0,48,49
 115 -58 115 -58 97 -39 c 0,50,51
 81 -23 81 -23 68.5 2.5 c 128,-1,52
 56 28 56 28 58 63 c 0,53,54
 60 101 60 101 71 134 c 128,-1,55
 82 167 82 167 96 194 c 0,56,57
 99 201 99 201 105.5 211.5 c 128,-1,58
 112 222 112 222 118 234 c 128,-1,59
 124 246 124 246 128 258 c 128,-1,60
 132 270 132 270 131 278 c 0,61,62
 129 292 129 292 121.5 299 c 128,-1,63
 114 306 114 306 106 308 c 0,64,65
 96 311 96 311 84 310 c 2,66,-1
 55 310 l 2,67,68
 48 310 48 310 44 314 c 256,69,70
 40 318 40 318 40 325 c 2,71,-1
 40 375 l 2,72,73
 40 382 40 382 44 386 c 256,74,75
 48 390 48 390 55 390 c 2,76,-1
 84 390 l 2,77,78
 96 389 96 389 106 392 c 0,79,80
 114 394 114 394 121.5 401 c 128,-1,81
 129 408 129 408 131 422 c 0,82,83
 132 430 132 430 128 441.5 c 128,-1,84
 124 453 124 453 118 465 c 128,-1,85
 112 477 112 477 105.5 488 c 128,-1,86
 99 499 99 499 96 506 c 0,87,88
 82 533 82 533 71 566 c 128,-1,89
 60 599 60 599 58 637 c 0,90,91
 56 672 56 672 68.5 697 c 128,-1,92
 81 722 81 722 97 739 c 0,93,94
 115 757 115 757 139 770 c 0,95,96
 152 776 152 776 169 780 c 0,97,98
 183 783 183 783 201.5 785 c 128,-1,99
 220 787 220 787 241 782 c 0,100,101
 244 781 244 781 248 778 c 0,102,103
 256 772 256 772 256 762 c 2,104,-1
 256 705 l 2,105,106
 256 699 256 699 252 695 c 256,107,108
 248 691 248 691 241 691 c 2,109,-1
 208 691 l 1,110,-1
 208 691 l 1,0,1
EndSplineSet
Validated: 37
EndChar

StartChar: bar
Encoding: 124 124 65
Width: 160
GlyphClass: 1
Flags: W
LayerCount: 2
Fore
SplineSet
54 -95 m 2,0,1
 40 -95 40 -95 40 -81 c 2,2,-1
 40 781 l 2,3,4
 40 795 40 795 54 795 c 2,5,-1
 106 795 l 2,6,7
 120 795 120 795 120 781 c 2,8,-1
 120 -81 l 2,9,10
 120 -95 120 -95 106 -95 c 2,11,-1
 54 -95 l 2,0,1
EndSplineSet
Validated: 1
EndChar

StartChar: braceright
Encoding: 125 125 66
Width: 296
GlyphClass: 1
Flags: W
LayerCount: 2
Fore
SplineSet
88 691 m 2,0,-1
 55 691 l 2,1,2
 48 691 48 691 44 695 c 256,3,4
 40 699 40 699 40 705 c 2,5,-1
 40 762 l 2,6,7
 40 773 40 773 47 778 c 0,8,9
 51 781 51 781 55 782 c 0,10,11
 75 787 75 787 94 785 c 128,-1,12
 113 783 113 783 127 780 c 0,13,14
 144 776 144 776 157 770 c 0,15,16
 181 757 181 757 199 739 c 0,17,18
 215 722 215 722 227.5 697 c 128,-1,19
 240 672 240 672 238 637 c 0,20,21
 236 599 236 599 225 566 c 128,-1,22
 214 533 214 533 200 506 c 0,23,24
 197 499 197 499 190.5 488 c 128,-1,25
 184 477 184 477 178 465 c 128,-1,26
 172 453 172 453 168 441.5 c 128,-1,27
 164 430 164 430 165 422 c 0,28,29
 167 408 167 408 174.5 401 c 128,-1,30
 182 394 182 394 190 392 c 0,31,32
 200 389 200 389 212 390 c 2,33,-1
 241 390 l 2,34,35
 248 390 248 390 252 386 c 256,36,37
 256 382 256 382 256 375 c 2,38,-1
 256 325 l 2,39,40
 256 318 256 318 252 314 c 256,41,42
 248 310 248 310 241 310 c 2,43,-1
 212 310 l 2,44,45
 200 311 200 311 190 308 c 0,46,47
 182 306 182 306 174.5 299 c 128,-1,48
 167 292 167 292 165 278 c 0,49,50
 164 270 164 270 168 258 c 128,-1,51
 172 246 172 246 178 234 c 128,-1,52
 184 222 184 222 190.5 211.5 c 128,-1,53
 197 201 197 201 200 194 c 0,54,55
 214 167 214 167 225 134 c 128,-1,56
 236 101 236 101 238 63 c 0,57,58
 240 28 240 28 227.5 2.5 c 128,-1,59
 215 -23 215 -23 199 -39 c 0,60,61
 181 -58 181 -58 157 -70 c 0,62,63
 144 -77 144 -77 127 -81 c 0,64,65
 113 -85 113 -85 94 -86 c 128,-1,66
 75 -87 75 -87 55 -82 c 0,67,68
 51 -81 51 -81 47 -78 c 0,69,70
 40 -73 40 -73 40 -62 c 2,71,-1
 40 -5 l 2,72,73
 40 1 40 1 44 5 c 256,74,75
 48 9 48 9 55 9 c 2,76,-1
 88 9 l 2,77,78
 103 9 103 9 114 14 c 0,79,80
 124 19 124 19 131 29 c 128,-1,81
 138 39 138 39 137 59 c 0,82,83
 136 76 136 76 130 95 c 128,-1,84
 124 114 124 114 116 134 c 256,85,86
 108 154 108 154 99 172.5 c 128,-1,87
 90 191 90 191 83 210 c 0,88,89
 70 243 70 243 69 271 c 0,90,91
 68 295 68 295 79 317.5 c 128,-1,92
 90 340 90 340 125 350 c 1,93,94
 90 359 90 359 79 382 c 128,-1,95
 68 405 68 405 69 429 c 0,96,97
 70 457 70 457 83 490 c 0,98,99
 90 508 90 508 99 527 c 128,-1,100
 108 546 108 546 116 566 c 256,101,102
 124 586 124 586 130 605 c 128,-1,103
 136 624 136 624 137 641 c 0,104,105
 138 661 138 661 131 671 c 128,-1,106
 124 681 124 681 114 686 c 0,107,108
 103 691 103 691 88 691 c 2,0,-1
EndSplineSet
Validated: 33
EndChar

StartChar: cent
Encoding: 162 162 67
Width: 360
GlyphClass: 1
Flags: W
LayerCount: 2
Fore
SplineSet
221 420 m 1,0,1
 208 416 208 416 208 430 c 2,2,-1
 208 476 l 2,3,4
 208 486 208 486 201 493 c 128,-1,5
 194 500 194 500 184 500 c 2,6,-1
 176 500 l 2,7,8
 166 500 166 500 159 493 c 128,-1,9
 152 486 152 486 152 476 c 2,10,-1
 152 228 l 2,11,12
 152 218 152 218 159 211 c 128,-1,13
 166 204 166 204 176 204 c 2,14,-1
 184 204 l 2,15,16
 194 204 194 204 201 211 c 128,-1,17
 208 218 208 218 208 228 c 2,18,-1
 208 319 l 2,19,20
 208 333 208 333 221 329 c 2,21,-1
 312 317 l 2,22,23
 325 313 325 313 325 299 c 2,24,-1
 325 223 l 2,25,26
 325 176 325 176 295.5 141.5 c 128,-1,27
 266 107 266 107 221 99 c 1,28,-1
 221 14 l 2,29,30
 221 0 221 0 207 0 c 2,31,-1
 153 0 l 2,32,33
 139 0 139 0 139 14 c 2,34,-1
 139 99 l 1,35,36
 94 107 94 107 64.5 141.5 c 128,-1,37
 35 176 35 176 35 223 c 2,38,-1
 35 481 l 2,39,40
 35 528 35 528 64.5 562.5 c 128,-1,41
 94 597 94 597 139 605 c 1,42,-1
 139 686 l 2,43,44
 139 700 139 700 153 700 c 2,45,-1
 207 700 l 2,46,47
 221 700 221 700 221 686 c 2,48,-1
 221 605 l 1,49,50
 266 597 266 597 295.5 562.5 c 128,-1,51
 325 528 325 528 325 481 c 2,52,-1
 325 452 l 2,53,54
 325 438 325 438 312 434 c 2,55,-1
 221 420 l 1,56,-1
 221 420 l 1,0,1
EndSplineSet
Validated: 5
EndChar

StartChar: quotedblleft
Encoding: 8220 8220 68
Width: 305
GlyphClass: 1
Flags: W
LayerCount: 2
Fore
SplineSet
272 699 m 2,0,-1
 272 684 l 2,1,2
 272 682 272 682 271 681 c 0,3,4
 269 678 269 678 266 678 c 0,5,6
 261 678 261 678 254.5 676 c 128,-1,7
 248 674 248 674 241 669 c 128,-1,8
 234 664 234 664 228.5 655.5 c 128,-1,9
 223 647 223 647 221 633 c 0,10,11
 220 629 220 629 220.5 623.5 c 128,-1,12
 221 618 221 618 224 616 c 0,13,14
 226 614 226 614 231.5 615.5 c 128,-1,15
 237 617 237 617 240 617 c 0,16,17
 256 617 256 617 267 612.5 c 128,-1,18
 278 608 278 608 287 600 c 0,19,20
 305 583 305 583 305 554 c 0,21,22
 305 532 305 532 289 515 c 0,23,24
 271 496 271 496 243 496 c 0,25,26
 212 496 212 496 193.5 516 c 128,-1,27
 175 536 175 536 171 565 c 0,28,29
 169 575 169 575 168.5 585 c 128,-1,30
 168 595 168 595 170 605 c 0,31,32
 174 632 174 632 186.5 654 c 128,-1,33
 199 676 199 676 222 691 c 0,34,35
 228 695 228 695 234.5 698.5 c 128,-1,36
 241 702 241 702 248 704 c 0,37,38
 249 704 249 704 254 705 c 128,-1,39
 259 706 259 706 264 707 c 0,40,41
 266 707 266 707 268 706 c 0,42,43
 272 704 272 704 272 699 c 2,0,-1
104 699 m 2,44,-1
 104 684 l 2,45,46
 104 682 104 682 103 681 c 0,47,48
 101 678 101 678 98 678 c 0,49,50
 93 678 93 678 86.5 676 c 128,-1,51
 80 674 80 674 73 669 c 128,-1,52
 66 664 66 664 60.5 655.5 c 128,-1,53
 55 647 55 647 53 633 c 0,54,55
 52 629 52 629 52.5 623.5 c 128,-1,56
 53 618 53 618 56 616 c 0,57,58
 58 614 58 614 63.5 615.5 c 128,-1,59
 69 617 69 617 72 617 c 0,60,61
 88 617 88 617 99 612.5 c 128,-1,62
 110 608 110 608 119 600 c 0,63,64
 137 583 137 583 137 554 c 0,65,66
 137 532 137 532 121 515 c 0,67,68
 103 496 103 496 75 496 c 0,69,70
 44 496 44 496 25.5 516 c 128,-1,71
 7 536 7 536 3 565 c 0,72,73
 1 575 1 575 0.5 585 c 128,-1,74
 0 595 0 595 2 605 c 0,75,76
 6 632 6 632 18.5 654 c 128,-1,77
 31 676 31 676 54 691 c 0,78,79
 60 695 60 695 66.5 698.5 c 128,-1,80
 73 702 73 702 80 704 c 0,81,82
 81 704 81 704 86 705 c 128,-1,83
 91 706 91 706 96 707 c 0,84,85
 98 707 98 707 100 706 c 0,86,87
 104 704 104 704 104 699 c 2,44,-1
EndSplineSet
Validated: 1
EndChar

StartChar: quotedblright
Encoding: 8221 8221 69
Width: 305
GlyphClass: 1
Flags: W
LayerCount: 2
Fore
SplineSet
33 504 m 2,0,-1
 33 519 l 2,1,2
 33 520 33 520 34 522 c 0,3,4
 37 525 37 525 39 525 c 0,5,6
 48 525 48 525 63.5 533.5 c 128,-1,7
 79 542 79 542 84 570 c 0,8,9
 85 574 85 574 84.5 579.5 c 128,-1,10
 84 585 84 585 81 587 c 0,11,12
 79 589 79 589 73.5 587.5 c 128,-1,13
 68 586 68 586 65 586 c 0,14,15
 48 586 48 586 37.5 590.5 c 128,-1,16
 27 595 27 595 18 603 c 0,17,18
 0 619 0 619 0 649 c 0,19,20
 0 671 0 671 16 688 c 0,21,22
 34 707 34 707 62 707 c 0,23,24
 92 707 92 707 111 687 c 128,-1,25
 130 667 130 667 134 638 c 0,26,27
 136 628 136 628 136.5 618 c 128,-1,28
 137 608 137 608 135 598 c 0,29,30
 131 571 131 571 118.5 549 c 128,-1,31
 106 527 106 527 83 512 c 0,32,33
 77 508 77 508 70.5 504.5 c 128,-1,34
 64 501 64 501 57 499 c 0,35,36
 56 499 56 499 51 498 c 128,-1,37
 46 497 46 497 41 496 c 0,38,39
 39 496 39 496 37 497 c 0,40,41
 33 499 33 499 33 504 c 2,0,-1
201 504 m 2,42,-1
 201 519 l 2,43,44
 201 520 201 520 202 522 c 0,45,46
 205 525 205 525 207 525 c 0,47,48
 216 525 216 525 231.5 533.5 c 128,-1,49
 247 542 247 542 252 570 c 0,50,51
 253 574 253 574 252.5 579.5 c 128,-1,52
 252 585 252 585 249 587 c 0,53,54
 247 589 247 589 241.5 587.5 c 128,-1,55
 236 586 236 586 233 586 c 0,56,57
 216 586 216 586 205.5 590.5 c 128,-1,58
 195 595 195 595 186 603 c 0,59,60
 168 619 168 619 168 649 c 0,61,62
 168 671 168 671 184 688 c 0,63,64
 202 707 202 707 230 707 c 0,65,66
 260 707 260 707 279 687 c 128,-1,67
 298 667 298 667 302 638 c 0,68,69
 304 628 304 628 304.5 618 c 128,-1,70
 305 608 305 608 303 598 c 0,71,72
 299 571 299 571 286.5 549 c 128,-1,73
 274 527 274 527 251 512 c 0,74,75
 245 508 245 508 238.5 504.5 c 128,-1,76
 232 501 232 501 225 499 c 0,77,78
 224 499 224 499 219 498 c 128,-1,79
 214 497 214 497 209 496 c 0,80,81
 207 496 207 496 205 497 c 0,82,83
 201 499 201 499 201 504 c 2,42,-1
EndSplineSet
Validated: 1
EndChar

StartChar: quoteleft
Encoding: 8216 8216 70
Width: 137
GlyphClass: 1
Flags: W
LayerCount: 2
Fore
SplineSet
104 699 m 2,0,-1
 104 684 l 2,1,2
 104 682 104 682 103 681 c 0,3,4
 101 678 101 678 98 678 c 0,5,6
 93 678 93 678 86.5 676 c 128,-1,7
 80 674 80 674 73 669 c 128,-1,8
 66 664 66 664 60.5 655.5 c 128,-1,9
 55 647 55 647 53 633 c 0,10,11
 52 629 52 629 52.5 623.5 c 128,-1,12
 53 618 53 618 56 616 c 0,13,14
 58 614 58 614 63.5 615.5 c 128,-1,15
 69 617 69 617 72 617 c 0,16,17
 88 617 88 617 99 612.5 c 128,-1,18
 110 608 110 608 119 600 c 0,19,20
 137 583 137 583 137 554 c 0,21,22
 137 532 137 532 121 515 c 0,23,24
 103 496 103 496 75 496 c 0,25,26
 44 496 44 496 25.5 516 c 128,-1,27
 7 536 7 536 3 565 c 0,28,29
 1 575 1 575 0.5 585 c 128,-1,30
 0 595 0 595 2 605 c 0,31,32
 6 632 6 632 18.5 654 c 128,-1,33
 31 676 31 676 54 691 c 0,34,35
 60 695 60 695 66.5 698.5 c 128,-1,36
 73 702 73 702 80 704 c 0,37,38
 81 704 81 704 86 705 c 128,-1,39
 91 706 91 706 96 707 c 0,40,41
 98 707 98 707 100 706 c 0,42,43
 104 704 104 704 104 699 c 2,0,-1
EndSplineSet
Validated: 1
EndChar

StartChar: quoteright
Encoding: 8217 8217 71
Width: 137
GlyphClass: 1
Flags: W
LayerCount: 2
Fore
SplineSet
33 504 m 2,0,-1
 33 519 l 2,1,2
 33 520 33 520 34 522 c 0,3,4
 37 525 37 525 39 525 c 0,5,6
 48 525 48 525 63.5 533.5 c 128,-1,7
 79 542 79 542 84 570 c 0,8,9
 85 574 85 574 84.5 579.5 c 128,-1,10
 84 585 84 585 81 587 c 0,11,12
 79 589 79 589 73.5 587.5 c 128,-1,13
 68 586 68 586 65 586 c 0,14,15
 48 586 48 586 37.5 590.5 c 128,-1,16
 27 595 27 595 18 603 c 0,17,18
 0 619 0 619 0 649 c 0,19,20
 0 671 0 671 16 688 c 0,21,22
 34 707 34 707 62 707 c 0,23,24
 92 707 92 707 111 687 c 128,-1,25
 130 667 130 667 134 638 c 0,26,27
 136 628 136 628 136.5 618 c 128,-1,28
 137 608 137 608 135 598 c 0,29,30
 131 571 131 571 118.5 549 c 128,-1,31
 106 527 106 527 83 512 c 0,32,33
 77 508 77 508 70.5 504.5 c 128,-1,34
 64 501 64 501 57 499 c 0,35,36
 56 499 56 499 51 498 c 128,-1,37
 46 497 46 497 41 496 c 0,38,39
 39 496 39 496 37 497 c 0,40,41
 33 499 33 499 33 504 c 2,0,-1
EndSplineSet
Validated: 1
EndChar

StartChar: endash
Encoding: 8211 8211 72
Width: 352
GlyphClass: 1
Flags: W
LayerCount: 2
Fore
SplineSet
44 314 m 2,0,1
 30 314 30 314 30 328 c 2,2,-1
 30 404 l 2,3,4
 30 418 30 418 44 418 c 2,5,-1
 308 418 l 2,6,7
 322 418 322 418 322 404 c 2,8,-1
 322 328 l 2,9,10
 322 314 322 314 308 314 c 2,11,-1
 44 314 l 2,0,1
EndSplineSet
Validated: 1
EndChar

StartChar: emdash
Encoding: 8212 8212 73
Width: 438
GlyphClass: 1
Flags: W
LayerCount: 2
Fore
SplineSet
44 314 m 2,0,1
 30 314 30 314 30 328 c 2,2,-1
 30 404 l 2,3,4
 30 418 30 418 44 418 c 2,5,-1
 394 418 l 2,6,7
 408 418 408 418 408 404 c 2,8,-1
 408 328 l 2,9,10
 408 314 408 314 394 314 c 2,11,-1
 44 314 l 2,0,1
EndSplineSet
Validated: 1
EndChar

StartChar: multiply
Encoding: 215 215 74
Width: 355
GlyphClass: 1
Flags: W
LayerCount: 2
Fore
SplineSet
346 279 m 2,0,1
 350 275 350 275 350 269 c 128,-1,2
 350 263 350 263 346 259 c 2,3,-1
 292 205 l 2,4,5
 288 201 288 201 282 201 c 128,-1,6
 276 201 276 201 272 205 c 2,7,-1
 185 292 l 1,8,-1
 98 205 l 2,9,10
 94 201 94 201 88 201 c 128,-1,11
 82 201 82 201 78 205 c 2,12,-1
 24 259 l 2,13,14
 20 263 20 263 20 269 c 128,-1,15
 20 275 20 275 24 279 c 2,16,-1
 111 366 l 1,17,-1
 24 453 l 2,18,19
 20 457 20 457 20 463 c 128,-1,20
 20 469 20 469 24 473 c 2,21,-1
 78 527 l 2,22,23
 82 531 82 531 88 531 c 128,-1,24
 94 531 94 531 98 527 c 2,25,-1
 185 440 l 1,26,-1
 272 527 l 2,27,28
 276 531 276 531 282 531 c 128,-1,29
 288 531 288 531 292 527 c 2,30,-1
 346 473 l 2,31,32
 350 469 350 469 350 463 c 128,-1,33
 350 457 350 457 346 453 c 2,34,-1
 259 366 l 1,35,-1
 346 279 l 2,0,1
EndSplineSet
Validated: 1
EndChar

StartChar: A
Encoding: 65 65 75
Width: 356
GlyphClass: 1
Flags: W
LayerCount: 2
Fore
SplineSet
335 14 m 2,0,1
 337 0 337 0 323 0 c 2,2,-1
 232 0 l 2,3,4
 219 0 219 0 217 14 c 2,5,-1
 209 122 l 1,6,-1
 147 122 l 1,7,-1
 139 14 l 2,8,9
 137 0 137 0 124 0 c 2,10,-1
 33 0 l 2,11,12
 19 0 19 0 21 14 c 2,13,-1
 96 686 l 2,14,15
 98 700 98 700 112 700 c 2,16,-1
 244 700 l 2,17,18
 258 700 258 700 260 686 c 2,19,-1
 335 14 l 2,0,1
201 234 m 1,20,-1
 182 505 l 1,21,-1
 174 505 l 1,22,-1
 155 234 l 1,23,-1
 201 234 l 1,20,-1
EndSplineSet
Validated: 1
EndChar

StartChar: degree
Encoding: 176 176 76
Width: 168
GlyphClass: 1
Flags: W
LayerCount: 2
Fore
SplineSet
84 714 m 256,0,1
 110 714 110 714 129 695 c 128,-1,2
 148 676 148 676 148 650 c 256,3,4
 148 624 148 624 129 605 c 128,-1,5
 110 586 110 586 84 586 c 256,6,7
 58 586 58 586 39 605 c 128,-1,8
 20 624 20 624 20 650 c 256,9,10
 20 676 20 676 39 695 c 128,-1,11
 58 714 58 714 84 714 c 256,0,1
84 612 m 256,12,13
 100 612 100 612 111 623 c 128,-1,14
 122 634 122 634 122 650 c 256,15,16
 122 666 122 666 111 677 c 128,-1,17
 100 688 100 688 84 688 c 256,18,19
 68 688 68 688 57 677 c 128,-1,20
 46 666 46 666 46 650 c 256,21,22
 46 634 46 634 57 623 c 128,-1,23
 68 612 68 612 84 612 c 256,12,13
EndSplineSet
Validated: 1
EndChar

StartChar: paragraph
Encoding: 182 182 77
Width: 481
GlyphClass: 1
Flags: W
LayerCount: 2
Fore
SplineSet
427 700 m 2,0,1
 441 700 441 700 441 686 c 2,2,-1
 441 14 l 2,3,4
 441 0 441 0 427 0 c 2,5,-1
 382 0 l 2,6,7
 368 0 368 0 368 14 c 2,8,-1
 368 593 l 1,9,-1
 330 593 l 1,10,-1
 330 14 l 2,11,12
 330 0 330 0 316 0 c 2,13,-1
 227 0 l 2,14,15
 213 0 213 0 213 14 c 2,16,-1
 213 285 l 1,17,-1
 166 285 l 2,18,19
 140 285 140 285 117 295 c 128,-1,20
 94 305 94 305 77 322 c 128,-1,21
 60 339 60 339 50 362 c 128,-1,22
 40 385 40 385 40 411 c 2,23,-1
 40 574 l 2,24,25
 40 600 40 600 50 623 c 128,-1,26
 60 646 60 646 77 663 c 128,-1,27
 94 680 94 680 117 690 c 128,-1,28
 140 700 140 700 166 700 c 2,29,-1
 427 700 l 2,0,1
213 593 m 1,30,-1
 181 593 l 2,31,32
 171 593 171 593 164 586 c 128,-1,33
 157 579 157 579 157 569 c 2,34,-1
 157 416 l 2,35,36
 157 406 157 406 164 399 c 128,-1,37
 171 392 171 392 181 392 c 2,38,-1
 213 392 l 1,39,-1
 213 593 l 1,30,-1
EndSplineSet
Validated: 1
EndChar

StartChar: registered
Encoding: 174 174 78
Width: 260
GlyphClass: 1
Flags: W
LayerCount: 2
Fore
SplineSet
169 531 m 2,0,1
 170 528 170 528 167 528 c 2,2,-1
 144 528 l 2,3,4
 141 528 141 528 140 531 c 2,5,-1
 124 582 l 1,6,-1
 124 530 l 2,7,8
 124 528 124 528 121 528 c 2,9,-1
 102 528 l 2,10,11
 99 528 99 528 99 531 c 2,12,-1
 99 665 l 2,13,14
 99 669 99 669 102 669 c 2,15,-1
 135 669 l 2,16,17
 148 669 148 669 156 659.5 c 128,-1,18
 164 650 164 650 164 637 c 2,19,-1
 164 619 l 2,20,21
 164 610 164 610 160 602.5 c 128,-1,22
 156 595 156 595 146 592 c 1,23,-1
 169 531 l 2,0,1
138 636 m 2,24,25
 138 642 138 642 132 642 c 2,26,-1
 124 642 l 1,27,-1
 124 612 l 1,28,-1
 132 612 l 2,29,30
 138 612 138 612 138 618 c 2,31,-1
 138 636 l 2,24,25
130 707 m 256,32,33
 153 707 153 707 173 698.5 c 128,-1,34
 193 690 193 690 208 675 c 128,-1,35
 223 660 223 660 231.5 640 c 128,-1,36
 240 620 240 620 240 597 c 256,37,38
 240 574 240 574 231.5 554 c 128,-1,39
 223 534 223 534 208 519 c 128,-1,40
 193 504 193 504 173 495.5 c 128,-1,41
 153 487 153 487 130 487 c 256,42,43
 107 487 107 487 87 495.5 c 128,-1,44
 67 504 67 504 52 519 c 128,-1,45
 37 534 37 534 28.5 554 c 128,-1,46
 20 574 20 574 20 597 c 256,47,48
 20 620 20 620 28.5 640 c 128,-1,49
 37 660 37 660 52 675 c 128,-1,50
 67 690 67 690 87 698.5 c 128,-1,51
 107 707 107 707 130 707 c 256,32,33
130 507 m 256,52,53
 168 507 168 507 194 533 c 128,-1,54
 220 559 220 559 220 597 c 256,55,56
 220 635 220 635 194 661 c 128,-1,57
 168 687 168 687 130 687 c 256,58,59
 92 687 92 687 66 661 c 128,-1,60
 40 635 40 635 40 597 c 256,61,62
 40 559 40 559 66 533 c 128,-1,63
 92 507 92 507 130 507 c 256,52,53
EndSplineSet
Validated: 1
EndChar

StartChar: copyright
Encoding: 169 169 79
Width: 260
GlyphClass: 1
Flags: W
LayerCount: 2
Fore
SplineSet
130 707 m 256,0,1
 153 707 153 707 173 698.5 c 128,-1,2
 193 690 193 690 208 675 c 128,-1,3
 223 660 223 660 231.5 640 c 128,-1,4
 240 620 240 620 240 597 c 256,5,6
 240 574 240 574 231.5 554 c 128,-1,7
 223 534 223 534 208 519 c 128,-1,8
 193 504 193 504 173 495.5 c 128,-1,9
 153 487 153 487 130 487 c 256,10,11
 107 487 107 487 87 495.5 c 128,-1,12
 67 504 67 504 52 519 c 128,-1,13
 37 534 37 534 28.5 554 c 128,-1,14
 20 574 20 574 20 597 c 256,15,16
 20 620 20 620 28.5 640 c 128,-1,17
 37 660 37 660 52 675 c 128,-1,18
 67 690 67 690 87 698.5 c 128,-1,19
 107 707 107 707 130 707 c 256,0,1
130 507 m 256,20,21
 168 507 168 507 194 533 c 128,-1,22
 220 559 220 559 220 597 c 256,23,24
 220 635 220 635 194 661 c 128,-1,25
 168 687 168 687 130 687 c 256,26,27
 92 687 92 687 66 661 c 128,-1,28
 40 635 40 635 40 597 c 256,29,30
 40 559 40 559 66 533 c 128,-1,31
 92 507 92 507 130 507 c 256,20,21
135 673 m 2,32,33
 149 673 149 673 158 664 c 128,-1,34
 167 655 167 655 167 641 c 2,35,-1
 167 620 l 2,36,37
 167 616 167 616 164 616 c 2,38,-1
 140 612 l 2,39,40
 137 610 137 610 137 615 c 2,41,-1
 137 640 l 2,42,43
 137 646 137 646 131 646 c 2,44,-1
 129 646 l 2,45,46
 123 646 123 646 123 640 c 2,47,-1
 123 555 l 2,48,49
 123 549 123 549 129 549 c 2,50,-1
 131 549 l 2,51,52
 137 549 137 549 137 555 c 2,53,-1
 137 583 l 2,54,55
 137 586 137 586 140 586 c 2,56,-1
 164 582 l 2,57,58
 167 580 167 580 167 578 c 2,59,-1
 167 554 l 2,60,61
 167 540 167 540 158 531 c 128,-1,62
 149 522 149 522 135 522 c 2,63,-1
 125 522 l 2,64,65
 111 522 111 522 102 531 c 128,-1,66
 93 540 93 540 93 554 c 2,67,-1
 93 641 l 2,68,69
 93 655 93 655 102 664 c 128,-1,70
 111 673 111 673 125 673 c 2,71,-1
 135 673 l 2,32,33
EndSplineSet
Validated: 1
EndChar

StartChar: divide
Encoding: 247 247 81
Width: 438
GlyphClass: 1
Flags: W
LayerCount: 2
Fore
SplineSet
394 418 m 2,0,1
 408 418 408 418 408 404 c 2,2,-1
 408 328 l 2,3,4
 408 314 408 314 394 314 c 2,5,-1
 44 314 l 2,6,7
 30 314 30 314 30 328 c 2,8,-1
 30 404 l 2,9,10
 30 418 30 418 44 418 c 2,11,-1
 394 418 l 2,0,1
219 281 m 256,12,13
 245 281 245 281 264 262 c 128,-1,14
 283 243 283 243 283 217 c 256,15,16
 283 191 283 191 264 172 c 128,-1,17
 245 153 245 153 219 153 c 256,18,19
 193 153 193 153 174 172 c 128,-1,20
 155 191 155 191 155 217 c 256,21,22
 155 243 155 243 174 262 c 128,-1,23
 193 281 193 281 219 281 c 256,12,13
219 451 m 256,24,25
 193 451 193 451 174 470 c 128,-1,26
 155 489 155 489 155 515 c 256,27,28
 155 541 155 541 174 560 c 128,-1,29
 193 579 193 579 219 579 c 256,30,31
 245 579 245 579 264 560 c 128,-1,32
 283 541 283 541 283 515 c 256,33,34
 283 489 283 489 264 470 c 128,-1,35
 245 451 245 451 219 451 c 256,24,25
EndSplineSet
Validated: 1
EndChar

StartChar: trademark
Encoding: 8482 8482 82
Width: 269
GlyphClass: 1
Flags: W
LayerCount: 2
Fore
SplineSet
245 700 m 2,0,1
 249 700 249 700 249 696 c 2,2,-1
 249 510 l 2,3,4
 249 506 249 506 244 506 c 2,5,-1
 214 506 l 2,6,7
 209 506 209 506 209 510 c 2,8,-1
 209 596 l 1,9,-1
 188 514 l 2,10,11
 186 511 186 511 185 514 c 2,12,-1
 164 596 l 1,13,-1
 164 510 l 2,14,15
 164 506 164 506 160 506 c 2,16,-1
 129 506 l 2,17,18
 125 506 125 506 125 510 c 2,19,-1
 125 696 l 2,20,21
 125 700 125 700 129 700 c 2,22,-1
 157 700 l 2,23,24
 160 700 160 700 162 696 c 2,25,-1
 187 596 l 1,26,-1
 212 696 l 2,27,28
 212 700 212 700 217 700 c 2,29,-1
 245 700 l 2,0,1
107 700 m 2,30,31
 111 700 111 700 111 696 c 2,32,-1
 111 667 l 2,33,34
 111 663 111 663 107 663 c 2,35,-1
 84 663 l 1,36,-1
 84 510 l 2,37,38
 84 506 84 506 80 506 c 2,39,-1
 51 506 l 2,40,41
 47 506 47 506 47 510 c 2,42,-1
 47 663 l 1,43,-1
 24 663 l 2,44,45
 20 663 20 663 20 667 c 2,46,-1
 20 696 l 2,47,48
 20 700 20 700 24 700 c 2,49,-1
 107 700 l 2,30,31
EndSplineSet
Validated: 1
EndChar

StartChar: ellipsis
Encoding: 8230 8230 83
Width: 500
GlyphClass: 1
Flags: W
LayerCount: 2
Fore
SplineSet
20 57 m 256,0,1
 20 83 20 83 39 102 c 128,-1,2
 58 121 58 121 84 121 c 256,3,4
 110 121 110 121 129 102 c 128,-1,5
 148 83 148 83 148 57 c 256,6,7
 148 31 148 31 129 12 c 128,-1,8
 110 -7 110 -7 84 -7 c 256,9,10
 58 -7 58 -7 39 12 c 128,-1,11
 20 31 20 31 20 57 c 256,0,1
186 57 m 256,12,13
 186 83 186 83 205 102 c 128,-1,14
 224 121 224 121 250 121 c 256,15,16
 276 121 276 121 295 102 c 128,-1,17
 314 83 314 83 314 57 c 256,18,19
 314 31 314 31 295 12 c 128,-1,20
 276 -7 276 -7 250 -7 c 256,21,22
 224 -7 224 -7 205 12 c 128,-1,23
 186 31 186 31 186 57 c 256,12,13
352 57 m 256,24,25
 352 83 352 83 371 102 c 128,-1,26
 390 121 390 121 416 121 c 256,27,28
 442 121 442 121 461 102 c 128,-1,29
 480 83 480 83 480 57 c 256,30,31
 480 31 480 31 461 12 c 128,-1,32
 442 -7 442 -7 416 -7 c 256,33,34
 390 -7 390 -7 371 12 c 128,-1,35
 352 31 352 31 352 57 c 256,24,25
EndSplineSet
Validated: 1
EndChar

StartChar: questiondown
Encoding: 191 191 84
Width: 382
GlyphClass: 1
Flags: W
LayerCount: 2
Fore
SplineSet
284 643 m 256,0,1
 284 617 284 617 265 598 c 128,-1,2
 246 579 246 579 220 579 c 256,3,4
 194 579 194 579 175 598 c 128,-1,5
 156 617 156 617 156 643 c 256,6,7
 156 669 156 669 175 688 c 128,-1,8
 194 707 194 707 220 707 c 256,9,10
 246 707 246 707 265 688 c 128,-1,11
 284 669 284 669 284 643 c 256,0,1
194 -7 m 0,12,13
 267 -7 267 -7 307 36.5 c 128,-1,14
 347 80 347 80 347 162 c 2,15,-1
 347 238 l 2,16,17
 347 249 347 249 336 247 c 2,18,-1
 241 224 l 2,19,20
 230 220 230 220 230 210 c 2,21,-1
 230 157 l 2,22,23
 230 134 230 134 221.5 120 c 128,-1,24
 213 106 213 106 194 106 c 0,25,26
 168 106 168 106 161 125.5 c 128,-1,27
 154 145 154 145 154 179 c 0,28,29
 154 191 154 191 154 199.5 c 128,-1,30
 154 208 154 208 156.5 216.5 c 128,-1,31
 159 225 159 225 163.5 234.5 c 128,-1,32
 168 244 168 244 177 258 c 0,33,34
 192 281 192 281 208.5 301 c 128,-1,35
 225 321 225 321 237.5 340.5 c 128,-1,36
 250 360 250 360 258 380 c 128,-1,37
 266 400 266 400 265 423 c 0,38,39
 264 427 264 427 263.5 442 c 128,-1,40
 263 457 263 457 261 474 c 2,41,-1
 257 518 l 2,42,43
 255 529 255 529 244 529 c 2,44,-1
 202 529 l 2,45,46
 197 529 197 529 193.5 526 c 128,-1,47
 190 523 190 523 190 518 c 2,48,-1
 189 503 l 2,49,50
 187 484 187 484 184 460.5 c 128,-1,51
 181 437 181 437 175 423 c 0,52,53
 165 401 165 401 147.5 382 c 128,-1,54
 130 363 130 363 112 342 c 0,55,56
 85 310 85 310 70 292 c 128,-1,57
 55 274 55 274 47.5 259 c 128,-1,58
 40 244 40 244 38.5 227 c 128,-1,59
 37 210 37 210 36 181 c 0,60,61
 35 150 35 150 40.5 116.5 c 128,-1,62
 46 83 46 83 63 55.5 c 128,-1,63
 80 28 80 28 111.5 10.5 c 128,-1,64
 143 -7 143 -7 194 -7 c 0,12,13
EndSplineSet
Validated: 41
EndChar

StartChar: minus
Encoding: 8722 8722 85
Width: 438
GlyphClass: 1
Flags: W
LayerCount: 2
Fore
SplineSet
44 314 m 2,0,1
 30 314 30 314 30 328 c 2,2,-1
 30 404 l 2,3,4
 30 418 30 418 44 418 c 2,5,-1
 394 418 l 2,6,7
 408 418 408 418 408 404 c 2,8,-1
 408 328 l 2,9,10
 408 314 408 314 394 314 c 2,11,-1
 44 314 l 2,0,1
EndSplineSet
Validated: 1
EndChar

StartChar: a
Encoding: 97 97 86
Width: 356
GlyphClass: 1
Flags: W
LayerCount: 2
Fore
SplineSet
335 14 m 2,0,1
 337 0 337 0 323 0 c 2,2,-1
 232 0 l 2,3,4
 219 0 219 0 217 14 c 2,5,-1
 209 112 l 1,6,-1
 147 112 l 1,7,-1
 139 14 l 2,8,9
 137 0 137 0 124 0 c 2,10,-1
 33 0 l 2,11,12
 19 0 19 0 21 14 c 2,13,-1
 96 586 l 2,14,15
 98 600 98 600 112 600 c 2,16,-1
 244 600 l 2,17,18
 258 600 258 600 260 586 c 2,19,-1
 335 14 l 2,0,1
201 224 m 1,20,-1
 182 445 l 1,21,-1
 174 445 l 1,22,-1
 155 224 l 1,23,-1
 201 224 l 1,20,-1
EndSplineSet
Validated: 1
EndChar

StartChar: b
Encoding: 98 98 87
Width: 365
GlyphClass: 1
Flags: W
LayerCount: 2
Fore
SplineSet
307 283 m 256,0,1
 321 269 321 269 328 250 c 128,-1,2
 335 231 335 231 335 208 c 2,3,-1
 335 126 l 2,4,5
 335 100 335 100 325 77 c 128,-1,6
 315 54 315 54 298 37 c 128,-1,7
 281 20 281 20 258 10 c 128,-1,8
 235 0 235 0 209 0 c 2,9,-1
 62 0 l 2,10,11
 56 0 56 0 50.5 1.5 c 128,-1,12
 45 3 45 3 45 14 c 2,13,-1
 45 586 l 2,14,15
 45 600 45 600 59 600 c 2,16,-1
 209 600 l 2,17,18
 235 600 235 600 258 590 c 128,-1,19
 281 580 281 580 298 563 c 128,-1,20
 315 546 315 546 325 523 c 128,-1,21
 335 500 335 500 335 474 c 2,22,-1
 335 408 l 2,23,24
 335 362 335 362 307 331 c 0,25,26
 292 315 292 315 271 305 c 1,27,28
 293 297 293 297 307 283 c 256,0,1
218 224 m 2,29,30
 218 234 218 234 211 241 c 128,-1,31
 204 248 204 248 194 248 c 2,32,-1
 162 248 l 1,33,-1
 162 107 l 1,34,-1
 194 107 l 2,35,36
 204 107 204 107 211 114 c 128,-1,37
 218 121 218 121 218 131 c 2,38,-1
 218 224 l 2,29,30
218 469 m 2,39,40
 218 479 218 479 211 486 c 128,-1,41
 204 493 204 493 194 493 c 2,42,-1
 162 493 l 1,43,-1
 162 357 l 1,44,-1
 194 357 l 2,45,46
 204 357 204 357 211 364 c 128,-1,47
 218 371 218 371 218 381 c 2,48,-1
 218 469 l 2,39,40
EndSplineSet
Validated: 1
EndChar

StartChar: c
Encoding: 99 99 88
Width: 355
GlyphClass: 1
Flags: W
LayerCount: 2
Fore
SplineSet
199 607 m 1,0,1
 225 607 225 607 248 597 c 128,-1,2
 271 587 271 587 288 570 c 128,-1,3
 305 553 305 553 315 530 c 128,-1,4
 325 507 325 507 325 481 c 2,5,-1
 325 421 l 2,6,7
 325 407 325 407 312 403 c 2,8,-1
 221 389 l 2,9,10
 208 385 208 385 208 399 c 2,11,-1
 208 476 l 2,12,13
 208 486 208 486 201 493 c 128,-1,14
 194 500 194 500 184 500 c 2,15,-1
 176 500 l 2,16,17
 166 500 166 500 159 493 c 128,-1,18
 152 486 152 486 152 476 c 2,19,-1
 152 124 l 2,20,21
 152 114 152 114 159 107 c 128,-1,22
 166 100 166 100 176 100 c 2,23,-1
 184 100 l 2,24,25
 194 100 194 100 201 107 c 128,-1,26
 208 114 208 114 208 124 c 2,27,-1
 208 244 l 2,28,29
 208 258 208 258 221 254 c 2,30,-1
 312 242 l 2,31,32
 325 238 325 238 325 224 c 2,33,-1
 325 119 l 2,34,35
 325 93 325 93 315 70 c 128,-1,36
 305 47 305 47 288 30 c 128,-1,37
 271 13 271 13 248 3 c 128,-1,38
 225 -7 225 -7 199 -7 c 2,39,-1
 161 -7 l 2,40,41
 135 -7 135 -7 112 3 c 128,-1,42
 89 13 89 13 72 30 c 128,-1,43
 55 47 55 47 45 70 c 128,-1,44
 35 93 35 93 35 119 c 2,45,-1
 35 481 l 2,46,47
 35 507 35 507 45 530 c 128,-1,48
 55 553 55 553 72 570 c 128,-1,49
 89 587 89 587 112 597 c 128,-1,50
 135 607 135 607 161 607 c 2,51,-1
 199 607 l 1,52,-1
 199 607 l 1,0,1
EndSplineSet
Validated: 5
EndChar

StartChar: d
Encoding: 100 100 89
Width: 370
GlyphClass: 1
Flags: W
LayerCount: 2
Fore
SplineSet
209 600 m 2,0,1
 235 600 235 600 258 590 c 128,-1,2
 281 580 281 580 298 563 c 128,-1,3
 315 546 315 546 325 523 c 128,-1,4
 335 500 335 500 335 474 c 2,5,-1
 335 126 l 2,6,7
 335 100 335 100 325 77 c 128,-1,8
 315 54 315 54 298 37 c 128,-1,9
 281 20 281 20 258 10 c 128,-1,10
 235 0 235 0 209 0 c 2,11,-1
 59 0 l 2,12,13
 45 0 45 0 45 14 c 2,14,-1
 45 586 l 2,15,16
 45 600 45 600 59 600 c 2,17,-1
 209 600 l 2,0,1
218 469 m 2,18,19
 218 479 218 479 211 486 c 128,-1,20
 204 493 204 493 194 493 c 2,21,-1
 162 493 l 1,22,-1
 162 107 l 1,23,-1
 194 107 l 2,24,25
 204 107 204 107 211 114 c 128,-1,26
 218 121 218 121 218 131 c 2,27,-1
 218 469 l 2,18,19
EndSplineSet
Validated: 1
EndChar

StartChar: e
Encoding: 101 101 90
Width: 330
GlyphClass: 1
Flags: W
LayerCount: 2
Fore
SplineSet
276 117 m 1,0,1
 290 117 290 117 290 103 c 2,2,-1
 290 14 l 2,3,4
 290 0 290 0 276 0 c 2,5,-1
 59 0 l 2,6,7
 45 0 45 0 45 14 c 2,8,-1
 45 586 l 2,9,10
 45 600 45 600 59 600 c 2,11,-1
 276 600 l 2,12,13
 290 600 290 600 290 586 c 2,14,-1
 290 497 l 2,15,16
 290 483 290 483 276 483 c 2,17,-1
 162 483 l 1,18,-1
 162 369 l 1,19,-1
 261 369 l 2,20,21
 275 369 275 369 275 355 c 2,22,-1
 275 266 l 2,23,24
 275 252 275 252 261 252 c 2,25,-1
 162 252 l 1,26,-1
 162 117 l 1,27,-1
 276 117 l 1,28,-1
 276 117 l 1,0,1
EndSplineSet
Validated: 5
EndChar

StartChar: f
Encoding: 102 102 91
Width: 320
GlyphClass: 1
Flags: W
LayerCount: 2
Fore
SplineSet
276 600 m 1,0,1
 290 600 290 600 290 586 c 2,2,-1
 290 497 l 2,3,4
 290 483 290 483 276 483 c 2,5,-1
 162 483 l 1,6,-1
 162 369 l 1,7,-1
 261 369 l 2,8,9
 275 369 275 369 275 355 c 2,10,-1
 275 266 l 2,11,12
 275 252 275 252 261 252 c 2,13,-1
 162 252 l 1,14,-1
 162 14 l 2,15,16
 162 0 162 0 148 0 c 2,17,-1
 59 0 l 2,18,19
 45 0 45 0 45 14 c 2,20,-1
 45 586 l 2,21,22
 45 600 45 600 59 600 c 2,23,-1
 276 600 l 1,24,-1
 276 600 l 1,0,1
EndSplineSet
Validated: 5
EndChar

StartChar: g
Encoding: 103 103 92
Width: 360
GlyphClass: 1
Flags: W
LayerCount: 2
Fore
SplineSet
199 607 m 1,0,1
 225 607 225 607 248 597 c 128,-1,2
 271 587 271 587 288 570 c 128,-1,3
 305 553 305 553 315 530 c 128,-1,4
 325 507 325 507 325 481 c 2,5,-1
 325 459 l 2,6,7
 325 445 325 445 312 441 c 2,8,-1
 221 408 l 2,9,10
 208 404 208 404 208 418 c 2,11,-1
 208 476 l 2,12,13
 208 486 208 486 201 493 c 128,-1,14
 194 500 194 500 184 500 c 2,15,-1
 176 500 l 2,16,17
 166 500 166 500 159 493 c 128,-1,18
 152 486 152 486 152 476 c 2,19,-1
 152 124 l 2,20,21
 152 114 152 114 159 107 c 128,-1,22
 166 100 166 100 176 100 c 2,23,-1
 184 100 l 2,24,25
 194 100 194 100 201 107 c 128,-1,26
 208 114 208 114 208 124 c 2,27,-1
 208 232 l 1,28,-1
 180 232 l 1,29,-1
 180 346 l 1,30,-1
 311 346 l 2,31,32
 325 346 325 346 325 332 c 2,33,-1
 325 119 l 2,34,35
 325 93 325 93 315 70 c 128,-1,36
 305 47 305 47 288 30 c 128,-1,37
 271 13 271 13 248 3 c 128,-1,38
 225 -7 225 -7 199 -7 c 2,39,-1
 161 -7 l 2,40,41
 135 -7 135 -7 112 3 c 128,-1,42
 89 13 89 13 72 30 c 128,-1,43
 55 47 55 47 45 70 c 128,-1,44
 35 93 35 93 35 119 c 2,45,-1
 35 481 l 2,46,47
 35 507 35 507 45 530 c 128,-1,48
 55 553 55 553 72 570 c 128,-1,49
 89 587 89 587 112 597 c 128,-1,50
 135 607 135 607 161 607 c 2,51,-1
 199 607 l 1,52,-1
 199 607 l 1,0,1
EndSplineSet
Validated: 5
EndChar

StartChar: h
Encoding: 104 104 93
Width: 390
GlyphClass: 1
Flags: W
LayerCount: 2
Fore
SplineSet
331 600 m 1,0,1
 345 600 345 600 345 586 c 2,2,-1
 345 14 l 2,3,4
 345 0 345 0 331 0 c 2,5,-1
 242 0 l 2,6,7
 228 0 228 0 228 14 c 2,8,-1
 228 240 l 1,9,-1
 162 240 l 1,10,-1
 162 14 l 2,11,12
 162 0 162 0 148 0 c 2,13,-1
 59 0 l 2,14,15
 45 0 45 0 45 14 c 2,16,-1
 45 586 l 2,17,18
 45 600 45 600 59 600 c 2,19,-1
 148 600 l 2,20,21
 162 600 162 600 162 586 c 2,22,-1
 162 357 l 1,23,-1
 228 357 l 1,24,-1
 228 586 l 2,25,26
 228 600 228 600 242 600 c 2,27,-1
 331 600 l 1,28,-1
 331 600 l 1,0,1
EndSplineSet
Validated: 5
EndChar

StartChar: i
Encoding: 105 105 94
Width: 207
GlyphClass: 1
Flags: W
LayerCount: 2
Fore
SplineSet
162 14 m 2,0,1
 162 0 162 0 148 0 c 2,2,-1
 59 0 l 2,3,4
 45 0 45 0 45 14 c 2,5,-1
 45 586 l 2,6,7
 45 600 45 600 59 600 c 2,8,-1
 148 600 l 2,9,10
 162 600 162 600 162 586 c 2,11,-1
 162 14 l 2,0,1
EndSplineSet
Validated: 1
EndChar

StartChar: j
Encoding: 106 106 95
Width: 355
GlyphClass: 1
Flags: W
LayerCount: 2
Fore
SplineSet
301 600 m 2,0,1
 315 600 315 600 315 586 c 2,2,-1
 315 119 l 2,3,4
 315 93 315 93 305 70 c 128,-1,5
 295 47 295 47 278 30 c 128,-1,6
 261 13 261 13 238 3 c 128,-1,7
 215 -7 215 -7 189 -7 c 2,8,-1
 151 -7 l 2,9,10
 125 -7 125 -7 102 3 c 128,-1,11
 79 13 79 13 62 30 c 128,-1,12
 45 47 45 47 35 70 c 128,-1,13
 25 93 25 93 25 119 c 2,14,-1
 25 226 l 2,15,16
 25 240 25 240 38 244 c 2,17,-1
 129 268 l 2,18,19
 142 272 142 272 142 258 c 2,20,-1
 142 124 l 2,21,22
 142 114 142 114 149 107 c 128,-1,23
 156 100 156 100 166 100 c 2,24,-1
 174 100 l 2,25,26
 184 100 184 100 191 107 c 128,-1,27
 198 114 198 114 198 124 c 2,28,-1
 198 586 l 2,29,30
 198 600 198 600 212 600 c 2,31,-1
 301 600 l 2,0,1
EndSplineSet
Validated: 1
EndChar

StartChar: k
Encoding: 107 107 96
Width: 403
GlyphClass: 1
Flags: W
LayerCount: 2
Fore
SplineSet
373 600 m 1,0,1
 379 600 379 600 381 595.5 c 128,-1,2
 383 591 383 591 381 586 c 2,3,-1
 245 331 l 1,4,-1
 379 14 l 2,5,6
 381 9 381 9 378 4.5 c 128,-1,7
 375 0 375 0 369 0 c 2,8,-1
 270 0 l 2,9,10
 264 0 264 0 259 3.5 c 128,-1,11
 254 7 254 7 252 12 c 2,12,-1
 179 178 l 1,13,-1
 162 146 l 1,14,-1
 162 14 l 2,15,16
 162 0 162 0 148 0 c 2,17,-1
 59 0 l 2,18,19
 45 0 45 0 45 14 c 2,20,-1
 45 586 l 2,21,22
 45 600 45 600 59 600 c 2,23,-1
 148 600 l 2,24,25
 162 600 162 600 162 586 c 2,26,-1
 162 411 l 1,27,-1
 254 588 l 2,28,29
 259 600 259 600 273 600 c 2,30,-1
 373 600 l 1,31,-1
 373 600 l 1,0,1
EndSplineSet
Validated: 5
EndChar

StartChar: l
Encoding: 108 108 97
Width: 330
GlyphClass: 1
Flags: W
LayerCount: 2
Fore
SplineSet
291 117 m 1,0,1
 305 117 305 117 305 103 c 2,2,-1
 305 14 l 2,3,4
 305 0 305 0 291 0 c 2,5,-1
 156 0 l 1,6,-1
 154 0 l 1,7,-1
 153 0 l 1,8,-1
 64 0 l 2,9,10
 50 0 50 0 50 14 c 2,11,-1
 50 586 l 2,12,13
 50 600 50 600 64 600 c 2,14,-1
 153 600 l 2,15,16
 167 600 167 600 167 586 c 2,17,-1
 167 117 l 1,18,-1
 291 117 l 1,19,-1
 291 117 l 1,0,1
EndSplineSet
Validated: 5
EndChar

StartChar: m
Encoding: 109 109 98
Width: 480
GlyphClass: 1
Flags: W
LayerCount: 2
Fore
SplineSet
421 600 m 1,0,1
 435 600 435 600 435 586 c 2,2,-1
 435 14 l 2,3,4
 435 0 435 0 421 0 c 2,5,-1
 325 0 l 2,6,7
 311 0 311 0 311 14 c 2,8,-1
 311 280 l 1,9,-1
 245 42 l 2,10,11
 243 37 243 37 240 37 c 128,-1,12
 237 37 237 37 235 42 c 2,13,-1
 169 280 l 1,14,-1
 169 14 l 2,15,16
 169 0 169 0 155 0 c 2,17,-1
 59 0 l 2,18,19
 45 0 45 0 45 14 c 2,20,-1
 45 586 l 2,21,22
 45 600 45 600 59 600 c 2,23,-1
 144 600 l 2,24,25
 150 600 150 600 154.5 595.5 c 128,-1,26
 159 591 159 591 161 586 c 2,27,-1
 240 278 l 1,28,-1
 319 586 l 2,29,30
 321 591 321 591 325.5 595.5 c 128,-1,31
 330 600 330 600 336 600 c 2,32,-1
 421 600 l 1,33,-1
 421 600 l 1,0,1
EndSplineSet
Validated: 5
EndChar

StartChar: n
Encoding: 110 110 99
Width: 410
GlyphClass: 1
Flags: W
LayerCount: 2
Fore
SplineSet
351 600 m 1,0,1
 365 600 365 600 365 586 c 2,2,-1
 365 14 l 2,3,4
 365 0 365 0 351 0 c 2,5,-1
 287 0 l 2,6,7
 281 0 281 0 275.5 4 c 128,-1,8
 270 8 270 8 268 13 c 2,9,-1
 162 274 l 1,10,-1
 162 14 l 2,11,12
 162 0 162 0 148 0 c 2,13,-1
 59 0 l 2,14,15
 45 0 45 0 45 14 c 2,16,-1
 45 586 l 2,17,18
 45 600 45 600 59 600 c 2,19,-1
 125 600 l 2,20,21
 131 600 131 600 136.5 596 c 128,-1,22
 142 592 142 592 144 587 c 2,23,-1
 248 296 l 1,24,-1
 248 586 l 2,25,26
 248 600 248 600 262 600 c 2,27,-1
 351 600 l 1,28,-1
 351 600 l 1,0,1
EndSplineSet
Validated: 5
EndChar

StartChar: o
Encoding: 111 111 100
Width: 360
GlyphClass: 1
Flags: W
LayerCount: 2
Fore
SplineSet
325 119 m 2,0,1
 325 93 325 93 315 70 c 128,-1,2
 305 47 305 47 288 30 c 128,-1,3
 271 13 271 13 248 3 c 128,-1,4
 225 -7 225 -7 199 -7 c 2,5,-1
 161 -7 l 2,6,7
 135 -7 135 -7 112 3 c 128,-1,8
 89 13 89 13 72 30 c 128,-1,9
 55 47 55 47 45 70 c 128,-1,10
 35 93 35 93 35 119 c 2,11,-1
 35 481 l 2,12,13
 35 507 35 507 45 530 c 128,-1,14
 55 553 55 553 72 570 c 128,-1,15
 89 587 89 587 112 597 c 128,-1,16
 135 607 135 607 161 607 c 2,17,-1
 199 607 l 2,18,19
 225 607 225 607 248 597 c 128,-1,20
 271 587 271 587 288 570 c 128,-1,21
 305 553 305 553 315 530 c 128,-1,22
 325 507 325 507 325 481 c 2,23,-1
 325 119 l 2,0,1
208 476 m 2,24,25
 208 486 208 486 201 493 c 128,-1,26
 194 500 194 500 184 500 c 2,27,-1
 176 500 l 2,28,29
 166 500 166 500 159 493 c 128,-1,30
 152 486 152 486 152 476 c 2,31,-1
 152 124 l 2,32,33
 152 114 152 114 159 107 c 128,-1,34
 166 100 166 100 176 100 c 2,35,-1
 184 100 l 2,36,37
 194 100 194 100 201 107 c 128,-1,38
 208 114 208 114 208 124 c 2,39,-1
 208 476 l 2,24,25
EndSplineSet
Validated: 1
EndChar

StartChar: p
Encoding: 112 112 101
Width: 355
GlyphClass: 1
Flags: W
LayerCount: 2
Fore
SplineSet
209 600 m 2,0,1
 235 600 235 600 258 590 c 128,-1,2
 281 580 281 580 298 563 c 128,-1,3
 315 546 315 546 325 523 c 128,-1,4
 335 500 335 500 335 474 c 2,5,-1
 335 341 l 2,6,7
 335 315 335 315 325 292 c 128,-1,8
 315 269 315 269 298 252 c 128,-1,9
 281 235 281 235 258 225 c 128,-1,10
 235 215 235 215 209 215 c 2,11,-1
 162 215 l 1,12,-1
 162 14 l 2,13,14
 162 0 162 0 148 0 c 2,15,-1
 59 0 l 2,16,17
 45 0 45 0 45 14 c 2,18,-1
 45 586 l 2,19,20
 45 600 45 600 59 600 c 2,21,-1
 209 600 l 2,0,1
218 469 m 2,22,23
 218 479 218 479 211 486 c 128,-1,24
 204 493 204 493 194 493 c 2,25,-1
 162 493 l 1,26,-1
 162 322 l 1,27,-1
 194 322 l 2,28,29
 204 322 204 322 211 329 c 128,-1,30
 218 336 218 336 218 346 c 2,31,-1
 218 469 l 2,22,23
EndSplineSet
Validated: 1
EndChar

StartChar: q
Encoding: 113 113 102
Width: 364
GlyphClass: 1
Flags: W
LayerCount: 2
Fore
SplineSet
326 -40 m 2,0,1
 329 -45 329 -45 327.5 -50.5 c 128,-1,2
 326 -56 326 -56 321 -58 c 2,3,-1
 252 -89 l 2,4,5
 238 -95 238 -95 230 -83 c 2,6,-1
 179 -7 l 1,7,-1
 161 -7 l 2,8,9
 135 -7 135 -7 112 3 c 128,-1,10
 89 13 89 13 72 30 c 128,-1,11
 55 47 55 47 45 70 c 128,-1,12
 35 93 35 93 35 119 c 2,13,-1
 35 481 l 2,14,15
 35 507 35 507 45 530 c 128,-1,16
 55 553 55 553 72 570 c 128,-1,17
 89 587 89 587 112 597 c 128,-1,18
 135 607 135 607 161 607 c 2,19,-1
 199 607 l 2,20,21
 225 607 225 607 248 597 c 128,-1,22
 271 587 271 587 288 570 c 128,-1,23
 305 553 305 553 315 530 c 128,-1,24
 325 507 325 507 325 481 c 2,25,-1
 325 119 l 2,26,27
 325 91 325 91 314 66.5 c 128,-1,28
 303 42 303 42 283 25 c 1,29,-1
 326 -40 l 2,0,1
152 124 m 2,30,31
 152 114 152 114 159 107 c 128,-1,32
 166 100 166 100 176 100 c 2,33,-1
 184 100 l 2,34,35
 194 100 194 100 201 107 c 128,-1,36
 208 114 208 114 208 124 c 2,37,-1
 208 476 l 2,38,39
 208 486 208 486 201 493 c 128,-1,40
 194 500 194 500 184 500 c 2,41,-1
 176 500 l 2,42,43
 166 500 166 500 159 493 c 128,-1,44
 152 486 152 486 152 476 c 2,45,-1
 152 124 l 2,30,31
EndSplineSet
Validated: 1
EndChar

StartChar: r
Encoding: 114 114 103
Width: 376
GlyphClass: 1
Flags: W
LayerCount: 2
Fore
SplineSet
162 14 m 2,0,1
 162 0 162 0 147 0 c 2,2,-1
 58 0 l 2,3,4
 45 0 45 0 45 14 c 2,5,-1
 45 586 l 2,6,7
 45 600 45 600 59 600 c 2,8,-1
 209 600 l 2,9,10
 235 600 235 600 258 590 c 128,-1,11
 281 580 281 580 298 563 c 128,-1,12
 315 546 315 546 325 523 c 128,-1,13
 335 500 335 500 335 474 c 2,14,-1
 335 351 l 2,15,16
 335 314 335 314 313 284.5 c 128,-1,17
 291 255 291 255 260 239 c 1,18,-1
 355 14 l 2,19,20
 358 0 358 0 345 0 c 2,21,-1
 254 0 l 2,22,23
 248 0 248 0 242.5 4 c 128,-1,24
 237 8 237 8 235 14 c 2,25,-1
 162 199 l 1,26,-1
 162 14 l 2,0,1
162 332 m 1,27,-1
 194 332 l 2,28,29
 204 332 204 332 211 339 c 128,-1,30
 218 346 218 346 218 356 c 2,31,-1
 218 469 l 2,32,33
 218 479 218 479 211 486 c 128,-1,34
 204 493 204 493 194 493 c 2,35,-1
 162 493 l 1,36,-1
 162 332 l 1,27,-1
EndSplineSet
Validated: 1
EndChar

StartChar: s
Encoding: 115 115 104
Width: 350
GlyphClass: 1
Flags: W
LayerCount: 2
Fore
SplineSet
194 607 m 1,0,1
 220 607 220 607 243 597 c 128,-1,2
 266 587 266 587 283 570 c 128,-1,3
 300 553 300 553 310 530 c 128,-1,4
 320 507 320 507 320 481 c 2,5,-1
 320 443 l 2,6,7
 320 429 320 429 307 425 c 2,8,-1
 216 401 l 2,9,10
 203 397 203 397 203 411 c 2,11,-1
 203 476 l 2,12,13
 203 486 203 486 196 493 c 128,-1,14
 189 500 189 500 179 500 c 2,15,-1
 171 500 l 2,16,17
 161 500 161 500 154 493 c 128,-1,18
 147 486 147 486 147 476 c 2,19,-1
 147 415 l 2,20,21
 148 404 148 404 151 396 c 128,-1,22
 154 388 154 388 162 380 c 2,23,-1
 293 282 l 2,24,25
 309 268 309 268 313.5 253.5 c 128,-1,26
 318 239 318 239 320 221 c 2,27,-1
 320 119 l 2,28,29
 320 93 320 93 310 70 c 128,-1,30
 300 47 300 47 283 30 c 128,-1,31
 266 13 266 13 243 3 c 128,-1,32
 220 -7 220 -7 194 -7 c 2,33,-1
 156 -7 l 2,34,35
 130 -7 130 -7 107 3 c 128,-1,36
 84 13 84 13 67 30 c 128,-1,37
 50 47 50 47 40 70 c 128,-1,38
 30 93 30 93 30 119 c 2,39,-1
 30 175 l 2,40,41
 30 189 30 189 43 193 c 2,42,-1
 134 217 l 2,43,44
 147 221 147 221 147 207 c 2,45,-1
 147 124 l 2,46,47
 147 114 147 114 154 107 c 128,-1,48
 161 100 161 100 171 100 c 2,49,-1
 179 100 l 2,50,51
 189 100 189 100 196 107 c 128,-1,52
 203 114 203 114 203 124 c 2,53,-1
 203 186 l 2,54,55
 202 199 202 199 199 209 c 128,-1,56
 196 219 196 219 187 227 c 2,57,-1
 58 326 l 2,58,59
 43 340 43 340 36.5 354 c 128,-1,60
 30 368 30 368 30 391 c 2,61,-1
 30 481 l 2,62,63
 30 507 30 507 40 530 c 128,-1,64
 50 553 50 553 67 570 c 128,-1,65
 84 587 84 587 107 597 c 128,-1,66
 130 607 130 607 156 607 c 2,67,-1
 194 607 l 1,68,-1
 194 607 l 1,0,1
EndSplineSet
Validated: 5
EndChar

StartChar: t
Encoding: 116 116 105
Width: 336
GlyphClass: 1
Flags: W
LayerCount: 2
Fore
SplineSet
297 600 m 1,0,1
 311 600 311 600 311 586 c 2,2,-1
 311 497 l 2,3,4
 311 483 311 483 297 483 c 2,5,-1
 226 483 l 1,6,-1
 226 14 l 2,7,8
 226 0 226 0 212 0 c 2,9,-1
 123 0 l 2,10,11
 118 0 118 0 113.5 4 c 128,-1,12
 109 8 109 8 109 14 c 2,13,-1
 109 483 l 1,14,-1
 39 483 l 2,15,16
 25 483 25 483 25 497 c 2,17,-1
 25 586 l 2,18,19
 25 600 25 600 39 600 c 2,20,-1
 297 600 l 1,21,-1
 297 600 l 1,0,1
EndSplineSet
Validated: 5
EndChar

StartChar: u
Encoding: 117 117 106
Width: 360
GlyphClass: 1
Flags: W
LayerCount: 2
Fore
SplineSet
311 600 m 1,0,1
 325 600 325 600 325 586 c 2,2,-1
 325 119 l 2,3,4
 325 93 325 93 315 70 c 128,-1,5
 305 47 305 47 288 30 c 128,-1,6
 271 13 271 13 248 3 c 128,-1,7
 225 -7 225 -7 199 -7 c 2,8,-1
 161 -7 l 2,9,10
 135 -7 135 -7 112 3 c 128,-1,11
 89 13 89 13 72 30 c 128,-1,12
 55 47 55 47 45 70 c 128,-1,13
 35 93 35 93 35 119 c 2,14,-1
 35 586 l 2,15,16
 35 600 35 600 49 600 c 2,17,-1
 138 600 l 2,18,19
 152 600 152 600 152 586 c 2,20,-1
 152 124 l 2,21,22
 152 114 152 114 159 107 c 128,-1,23
 166 100 166 100 176 100 c 2,24,-1
 184 100 l 2,25,26
 194 100 194 100 201 107 c 128,-1,27
 208 114 208 114 208 124 c 2,28,-1
 208 586 l 2,29,30
 208 600 208 600 222 600 c 2,31,-1
 311 600 l 1,32,-1
 311 600 l 1,0,1
EndSplineSet
Validated: 5
EndChar

StartChar: v
Encoding: 118 118 107
Width: 378
GlyphClass: 1
Flags: W
LayerCount: 2
Fore
SplineSet
355 600 m 1,0,1
 369 600 369 600 367 586 c 2,2,-1
 249 14 l 2,3,4
 247 0 247 0 233 0 c 2,5,-1
 145 0 l 2,6,7
 131 0 131 0 129 14 c 2,8,-1
 11 586 l 2,9,10
 9 600 9 600 23 600 c 2,11,-1
 131 600 l 2,12,13
 144 600 144 600 146 586 c 2,14,-1
 187 212 l 1,15,-1
 191 212 l 1,16,-1
 232 586 l 2,17,18
 234 600 234 600 247 600 c 2,19,-1
 355 600 l 1,20,-1
 355 600 l 1,0,1
EndSplineSet
Validated: 5
EndChar

StartChar: w
Encoding: 119 119 108
Width: 549
GlyphClass: 1
Flags: W
LayerCount: 2
Fore
SplineSet
526 600 m 1,0,1
 540 600 540 600 538 586 c 2,2,-1
 430 14 l 2,3,4
 428 0 428 0 414 0 c 2,5,-1
 326 0 l 2,6,7
 312 0 312 0 310 14 c 2,8,-1
 275 223 l 1,9,-1
 274 223 l 1,10,-1
 239 14 l 2,11,12
 237 0 237 0 223 0 c 2,13,-1
 135 0 l 2,14,15
 121 0 121 0 119 14 c 2,16,-1
 11 586 l 2,17,18
 9 600 9 600 23 600 c 2,19,-1
 131 600 l 2,20,21
 144 600 144 600 146 586 c 2,22,-1
 181 248 l 1,23,-1
 185 248 l 1,24,-1
 223 586 l 2,25,26
 225 600 225 600 238 600 c 2,27,-1
 311 600 l 2,28,29
 324 600 324 600 326 586 c 2,30,-1
 364 248 l 1,31,-1
 368 248 l 1,32,-1
 403 586 l 2,33,34
 405 600 405 600 418 600 c 2,35,-1
 526 600 l 1,36,-1
 526 600 l 1,0,1
EndSplineSet
Validated: 5
EndChar

StartChar: x
Encoding: 120 120 109
Width: 378
GlyphClass: 1
Flags: W
LayerCount: 2
Fore
SplineSet
347 14 m 1,0,1
 350 0 350 0 336 0 c 2,2,-1
 243 0 l 2,3,4
 229 0 229 0 227 14 c 2,5,-1
 189 162 l 1,6,-1
 151 14 l 2,7,8
 149 0 149 0 135 0 c 2,9,-1
 42 0 l 2,10,11
 36 0 36 0 32.5 4 c 128,-1,12
 29 8 29 8 31 14 c 2,13,-1
 113 301 l 1,14,-1
 31 586 l 2,15,16
 29 591 29 591 32.5 595.5 c 128,-1,17
 36 600 36 600 42 600 c 2,18,-1
 135 600 l 2,19,20
 149 600 149 600 151 586 c 2,21,-1
 189 438 l 1,22,-1
 227 586 l 2,23,24
 229 600 229 600 243 600 c 2,25,-1
 336 600 l 2,26,27
 342 600 342 600 345.5 595.5 c 128,-1,28
 349 591 349 591 347 586 c 2,29,-1
 265 301 l 1,30,-1
 347 14 l 1,31,-1
 347 14 l 1,0,1
EndSplineSet
Validated: 5
EndChar

StartChar: y
Encoding: 121 121 110
Width: 370
GlyphClass: 1
Flags: W
LayerCount: 2
Fore
SplineSet
349 600 m 1,0,1
 355 600 355 600 358 595.5 c 128,-1,2
 361 591 361 591 359 586 c 2,3,-1
 244 232 l 1,4,-1
 244 14 l 2,5,6
 244 0 244 0 230 0 c 2,7,-1
 140 0 l 2,8,9
 126 0 126 0 126 14 c 2,10,-1
 126 232 l 1,11,-1
 11 586 l 2,12,13
 9 591 9 591 12 595.5 c 128,-1,14
 15 600 15 600 21 600 c 2,15,-1
 127 600 l 2,16,17
 141 600 141 600 143 586 c 2,18,-1
 183 394 l 1,19,-1
 187 394 l 1,20,-1
 227 586 l 2,21,22
 229 600 229 600 243 600 c 2,23,-1
 349 600 l 1,24,-1
 349 600 l 1,0,1
EndSplineSet
Validated: 5
EndChar

StartChar: z
Encoding: 122 122 111
Width: 353
GlyphClass: 1
Flags: W
LayerCount: 2
Fore
SplineSet
309 112 m 1,0,1
 323 112 323 112 323 98 c 2,2,-1
 323 14 l 2,3,4
 323 0 323 0 309 0 c 2,5,-1
 44 0 l 2,6,7
 38 0 38 0 34.5 4 c 128,-1,8
 31 8 31 8 33 14 c 2,9,-1
 172 488 l 1,10,-1
 44 488 l 2,11,12
 30 488 30 488 30 502 c 2,13,-1
 30 586 l 2,14,15
 30 600 30 600 44 600 c 2,16,-1
 307 600 l 2,17,18
 313 600 313 600 316.5 595.5 c 128,-1,19
 320 591 320 591 318 586 c 2,20,-1
 179 112 l 1,21,-1
 309 112 l 1,22,-1
 309 112 l 1,0,1
EndSplineSet
Validated: 5
EndChar

StartChar: fraction
Encoding: 8260 8260 112
Width: 292
GlyphClass: 1
Flags: W
LayerCount: 2
Fore
SplineSet
11 0 m 2,0,1
 -3 0 -3 0 1 13 c 2,2,-1
 209 687 l 2,3,4
 213 700 213 700 227 700 c 2,5,-1
 281 700 l 2,6,7
 287 700 287 700 290 695.5 c 128,-1,8
 293 691 293 691 291 686 c 2,9,-1
 83 13 l 2,10,11
 79 0 79 0 65 0 c 2,12,-1
 11 0 l 2,0,1
EndSplineSet
Validated: 1
EndChar

StartChar: bullet
Encoding: 8226 8226 113
Width: 248
GlyphClass: 1
Flags: W
LayerCount: 2
Fore
SplineSet
40 350 m 256,0,1
 40 385 40 385 64.5 409.5 c 128,-1,2
 89 434 89 434 124 434 c 256,3,4
 159 434 159 434 183.5 409.5 c 128,-1,5
 208 385 208 385 208 350 c 256,6,7
 208 315 208 315 183.5 290.5 c 128,-1,8
 159 266 159 266 124 266 c 256,9,10
 89 266 89 266 64.5 290.5 c 128,-1,11
 40 315 40 315 40 350 c 256,0,1
EndSplineSet
Validated: 1
EndChar

StartChar: quotedblbase
Encoding: 8222 8222 114
Width: 345
GlyphClass: 1
Flags: W
LayerCount: 2
Fore
SplineSet
53 -82 m 2,0,-1
 53 -67 l 2,1,2
 53 -66 53 -66 54 -64 c 0,3,4
 57 -61 57 -61 59 -61 c 0,5,6
 68 -61 68 -61 83.5 -52.5 c 128,-1,7
 99 -44 99 -44 104 -16 c 0,8,9
 105 -12 105 -12 104.5 -6.5 c 128,-1,10
 104 -1 104 -1 101 1 c 0,11,12
 99 3 99 3 93.5 1.5 c 128,-1,13
 88 0 88 0 85 0 c 0,14,15
 68 0 68 0 57.5 4.5 c 128,-1,16
 47 9 47 9 38 17 c 0,17,18
 20 33 20 33 20 63 c 0,19,20
 20 85 20 85 36 102 c 0,21,22
 54 121 54 121 81 121 c 0,23,24
 111 121 111 121 130.5 101 c 128,-1,25
 150 81 150 81 154 52 c 0,26,27
 156 42 156 42 156.5 32 c 128,-1,28
 157 22 157 22 155 12 c 0,29,30
 151 -15 151 -15 138.5 -37 c 128,-1,31
 126 -59 126 -59 103 -74 c 0,32,33
 97 -78 97 -78 90.5 -81.5 c 128,-1,34
 84 -85 84 -85 77 -87 c 0,35,36
 76 -87 76 -87 71 -88 c 128,-1,37
 66 -89 66 -89 61 -90 c 0,38,39
 59 -90 59 -90 57 -89 c 0,40,41
 53 -87 53 -87 53 -82 c 2,0,-1
221 -82 m 2,42,-1
 221 -67 l 2,43,44
 221 -66 221 -66 222 -64 c 0,45,46
 225 -61 225 -61 227 -61 c 0,47,48
 236 -61 236 -61 251.5 -52.5 c 128,-1,49
 267 -44 267 -44 272 -16 c 0,50,51
 273 -12 273 -12 272.5 -6.5 c 128,-1,52
 272 -1 272 -1 269 1 c 0,53,54
 267 3 267 3 261.5 1.5 c 128,-1,55
 256 0 256 0 253 0 c 0,56,57
 236 0 236 0 225.5 4.5 c 128,-1,58
 215 9 215 9 206 17 c 0,59,60
 188 33 188 33 188 63 c 0,61,62
 188 85 188 85 204 102 c 0,63,64
 222 121 222 121 249 121 c 0,65,66
 279 121 279 121 298.5 101 c 128,-1,67
 318 81 318 81 322 52 c 0,68,69
 324 42 324 42 324.5 32 c 128,-1,70
 325 22 325 22 323 12 c 0,71,72
 319 -15 319 -15 306.5 -37 c 128,-1,73
 294 -59 294 -59 271 -74 c 0,74,75
 265 -78 265 -78 258.5 -81.5 c 128,-1,76
 252 -85 252 -85 245 -87 c 0,77,78
 244 -87 244 -87 239 -88 c 128,-1,79
 234 -89 234 -89 229 -90 c 0,80,81
 227 -90 227 -90 225 -89 c 0,82,83
 221 -87 221 -87 221 -82 c 2,42,-1
EndSplineSet
Validated: 1
EndChar

StartChar: quotesinglbase
Encoding: 8218 8218 115
Width: 217
GlyphClass: 1
Flags: W
LayerCount: 2
Fore
SplineSet
73 -82 m 2,0,-1
 73 -67 l 2,1,2
 73 -66 73 -66 74 -64 c 0,3,4
 77 -61 77 -61 79 -61 c 0,5,6
 88 -61 88 -61 103.5 -52.5 c 128,-1,7
 119 -44 119 -44 124 -16 c 0,8,9
 125 -12 125 -12 124.5 -6.5 c 128,-1,10
 124 -1 124 -1 121 1 c 0,11,12
 119 3 119 3 113.5 1.5 c 128,-1,13
 108 0 108 0 105 0 c 0,14,15
 88 0 88 0 77.5 4.5 c 128,-1,16
 67 9 67 9 58 17 c 0,17,18
 40 33 40 33 40 63 c 0,19,20
 40 85 40 85 56 102 c 0,21,22
 74 121 74 121 101 121 c 0,23,24
 131 121 131 121 150.5 101 c 128,-1,25
 170 81 170 81 174 52 c 0,26,27
 176 42 176 42 176.5 32 c 128,-1,28
 177 22 177 22 175 12 c 0,29,30
 171 -15 171 -15 158.5 -37 c 128,-1,31
 146 -59 146 -59 123 -74 c 0,32,33
 117 -78 117 -78 110.5 -81.5 c 128,-1,34
 104 -85 104 -85 97 -87 c 0,35,36
 96 -87 96 -87 91 -88 c 128,-1,37
 86 -89 86 -89 81 -90 c 0,38,39
 79 -90 79 -90 77 -89 c 0,40,41
 73 -87 73 -87 73 -82 c 2,0,-1
EndSplineSet
Validated: 1
EndChar

StartChar: Amacron
Encoding: 256 256 116
Width: 356
Flags: WO
HStem: 0 21G<26 130.5 225.5 330> 0 21G<26 130.5 225.5 330> 112 112<155 201> 580 20G<105 251> 580 20G<105 251>
VStem: 21 314
LayerCount: 2
Fore
SplineSet
50 686 m 0,0,1
 50 699 50 699 62 699 c 28,2,3
 62 699 62 699 301 699.948242188 c 0,4,5
 314 700 314 700 314 686 c 0,6,7
 314 686 314 686 314 636.974609375 c 0,8,9
 314 624 314 624 301 623.951171875 c 0,10,11
 301 623.951171875 301 623.951171875 63 623.048828125 c 0,12,13
 50 623 50 623 50 636 c 0,14,15
 50 636 50 636 50 686 c 1025,16,-1
63 623.049242424 m 1024,17,-1
  Spiro
    63 623.049 {
    0 0 z
  EndSpiro
50 686 m 1024,18,-1
  Spiro
    50 686 {
    0 0 z
  EndSpiro
301 699.948207171 m 1024,19,-1
  Spiro
    301 699.948 {
    0 0 z
  EndSpiro
314 636.974545455 m 1024,20,-1
  Spiro
    314 636.975 {
    0 0 z
  EndSpiro
63 623.049242424 m 1024,21,-1
  Spiro
    63 623.049 {
    0 0 z
  EndSpiro
50 686 m 1024,22,-1
  Spiro
    50 686 {
    0 0 z
  EndSpiro
50 686 m 1024,23,-1
  Spiro
    50 686 {
    0 0 z
  EndSpiro
335 14 m 2,24,25
 337 0 337 0 323 0 c 2,26,-1
 232 0 l 2,27,28
 219 0 219 0 217 14 c 2,29,-1
 209 112 l 1,30,-1
 147 112 l 1,31,-1
 139 14 l 2,32,33
 137 0 137 0 124 0 c 2,34,-1
 33 0 l 2,35,36
 19 0 19 0 21 14 c 2,37,-1
 96 586 l 2,38,39
 98 600 98 600 112 600 c 2,40,-1
 244 600 l 2,41,42
 258 600 258 600 260 586 c 2,43,-1
 335 14 l 2,24,25
  Spiro
    335 14 ]
    334.558 6.22845 o
    330.55 1.55245 o
    323 0 [
    232 0 ]
    224.562 1.55245 o
    219.552 6.22845 o
    217 14 [
    209 112 v
    147 112 v
    139 14 ]
    136.448 6.22845 o
    131.438 1.55245 o
    124 0 [
    33 0 ]
    25.4502 1.55245 o
    21.4422 6.22845 o
    21 14 [
    96 586 ]
    98.6627 593.772 o
    104.007 598.448 o
    112 600 [
    244 600 ]
    251.993 598.448 o
    257.337 593.772 o
    260 586 [
    0 0 z
  EndSpiro
201 224 m 1,44,-1
 182 445 l 1,45,-1
 174 445 l 1,46,-1
 155 224 l 1,47,-1
 201 224 l 1,44,-1
  Spiro
    201 224 v
    182 445 v
    174 445 v
    155 224 v
    0 0 z
  EndSpiro
EndSplineSet
EndChar
